<svg width="597" height="478" viewBox="0 0 597 478" fill="none" xmlns="http://www.w3.org/2000/svg">
<path d="M362.612 356.525V474.374H67.3562C33.7158 474.374 6.3457 447.94 6.3457 415.45C6.3457 382.959 33.7158 356.525 67.3562 356.525H362.612Z" fill="#F2F2F2"/>
<path d="M369.864 473.467C369.863 474.669 369.386 475.822 368.536 476.672C367.686 477.522 366.533 478 365.331 478H62.0972C45.628 478 29.8334 471.458 18.1879 459.812C6.54238 448.167 0 432.372 0 415.903C0 399.434 6.54238 383.639 18.1879 371.993C29.8334 360.348 45.628 353.806 62.0972 353.806H365.331C366.533 353.806 367.686 354.283 368.536 355.133C369.386 355.983 369.864 357.136 369.864 358.338C369.864 359.54 369.386 360.693 368.536 361.543C367.686 362.393 366.533 362.871 365.331 362.871H62.0972C48.0323 362.871 34.5434 368.458 24.598 378.404C14.6526 388.349 9.06529 401.838 9.06529 415.903C9.06529 429.968 14.6526 443.457 24.598 453.402C34.5434 463.347 48.0323 468.935 62.0972 468.935H365.331C366.533 468.935 367.686 469.413 368.536 470.263C369.386 471.113 369.863 472.265 369.864 473.467Z" fill="#2EB254"/>
<path d="M362.612 383.721H45.3265C45.086 383.721 44.8555 383.625 44.6855 383.455C44.5154 383.285 44.4199 383.055 44.4199 382.814C44.4199 382.574 44.5154 382.343 44.6855 382.173C44.8555 382.003 45.086 381.908 45.3265 381.908H362.612C362.852 381.908 363.083 382.003 363.253 382.173C363.423 382.343 363.518 382.574 363.518 382.814C363.518 383.055 363.423 383.285 363.253 383.455C363.083 383.625 362.852 383.721 362.612 383.721Z" fill="#CCCCCC"/>
<path d="M362.612 405.478H45.3265C45.086 405.478 44.8555 405.382 44.6855 405.212C44.5154 405.042 44.4199 404.812 44.4199 404.571C44.4199 404.331 44.5154 404.1 44.6855 403.93C44.8555 403.76 45.086 403.665 45.3265 403.665H362.612C362.852 403.665 363.083 403.76 363.253 403.93C363.423 404.1 363.518 404.331 363.518 404.571C363.518 404.812 363.423 405.042 363.253 405.212C363.083 405.382 362.852 405.478 362.612 405.478Z" fill="#CCCCCC"/>
<path d="M362.612 427.234H45.3265C45.086 427.234 44.8555 427.139 44.6855 426.969C44.5154 426.799 44.4199 426.568 44.4199 426.328C44.4199 426.087 44.5154 425.857 44.6855 425.687C44.8555 425.517 45.086 425.421 45.3265 425.421H362.612C362.852 425.421 363.083 425.517 363.253 425.687C363.423 425.857 363.518 426.087 363.518 426.328C363.518 426.568 363.423 426.799 363.253 426.969C363.083 427.139 362.852 427.234 362.612 427.234Z" fill="#CCCCCC"/>
<path d="M362.612 448.991H45.3265C45.086 448.991 44.8555 448.896 44.6855 448.726C44.5154 448.555 44.4199 448.325 44.4199 448.085C44.4199 447.844 44.5154 447.614 44.6855 447.444C44.8555 447.274 45.086 447.178 45.3265 447.178H362.612C362.852 447.178 363.083 447.274 363.253 447.444C363.423 447.614 363.518 447.844 363.518 448.085C363.518 448.325 363.423 448.555 363.253 448.726C363.083 448.896 362.852 448.991 362.612 448.991Z" fill="#CCCCCC"/>
<path d="M590.801 378.709L516.86 470.475L286.95 285.226C260.755 264.119 256.028 226.363 276.413 201.063C296.798 175.764 334.696 172.353 360.891 193.459L590.801 378.709Z" fill="#F2F2F2"/>
<path d="M523.076 474.319C522.321 475.255 521.226 475.853 520.031 475.982C518.836 476.11 517.639 475.759 516.702 475.005L280.58 284.75C267.756 274.417 259.562 259.412 257.8 243.038C256.039 226.663 260.854 210.259 271.187 197.435C281.521 184.611 296.525 176.416 312.9 174.655C329.274 172.893 345.678 177.709 358.502 188.042L594.625 378.297C595.089 378.671 595.474 379.132 595.76 379.654C596.046 380.177 596.225 380.75 596.289 381.342C596.353 381.934 596.3 382.533 596.132 383.105C595.965 383.676 595.686 384.209 595.312 384.672C594.939 385.136 594.477 385.522 593.955 385.807C593.432 386.092 592.858 386.272 592.266 386.335C591.674 386.399 591.076 386.345 590.504 386.177C589.933 386.009 589.4 385.73 588.937 385.356L352.815 195.101C347.392 190.728 341.161 187.467 334.478 185.503C327.794 183.538 320.789 182.91 313.863 183.654C306.937 184.398 300.225 186.499 294.111 189.837C287.997 193.175 282.601 197.685 278.23 203.109C273.86 208.534 270.6 214.766 268.639 221.45C266.677 228.134 266.052 235.139 266.798 242.065C267.545 248.991 269.648 255.702 272.989 261.815C276.33 267.928 280.842 273.322 286.268 277.691L522.39 467.946C523.326 468.701 523.924 469.796 524.052 470.991C524.181 472.186 523.83 473.383 523.076 474.319Z" fill="#CCCCCC"/>
<path d="M573.737 399.886L326.674 200.814C326.581 200.74 326.504 200.647 326.447 200.543C326.39 200.438 326.354 200.324 326.341 200.205C326.328 200.087 326.339 199.967 326.373 199.853C326.406 199.739 326.462 199.632 326.537 199.54C326.611 199.447 326.703 199.37 326.808 199.313C326.912 199.256 327.027 199.22 327.146 199.207C327.264 199.194 327.384 199.205 327.498 199.239C327.612 199.272 327.719 199.328 327.811 199.403L574.875 398.474C574.968 398.549 575.045 398.641 575.102 398.745C575.159 398.85 575.195 398.964 575.208 399.083C575.221 399.201 575.21 399.321 575.177 399.436C575.143 399.55 575.088 399.657 575.013 399.749C574.938 399.842 574.846 399.919 574.741 399.976C574.637 400.033 574.522 400.069 574.403 400.082C574.285 400.095 574.165 400.084 574.051 400.05C573.937 400.016 573.83 399.96 573.737 399.886Z" fill="#CCCCCC"/>
<path d="M560.087 416.827L313.023 217.756C312.836 217.605 312.717 217.386 312.691 217.147C312.666 216.908 312.736 216.669 312.887 216.482C313.038 216.295 313.256 216.175 313.495 216.149C313.734 216.123 313.973 216.193 314.161 216.344L561.224 415.415C561.317 415.49 561.394 415.582 561.452 415.687C561.509 415.791 561.545 415.906 561.558 416.024C561.571 416.143 561.56 416.263 561.526 416.377C561.493 416.491 561.437 416.598 561.362 416.691C561.288 416.783 561.195 416.861 561.091 416.918C560.986 416.975 560.871 417.011 560.753 417.023C560.634 417.036 560.515 417.025 560.4 416.991C560.286 416.958 560.18 416.902 560.087 416.827Z" fill="#CCCCCC"/>
<path d="M546.436 433.769L299.373 234.697C299.185 234.546 299.066 234.327 299.04 234.088C299.014 233.849 299.085 233.61 299.235 233.423C299.386 233.235 299.605 233.116 299.844 233.09C300.083 233.064 300.323 233.135 300.51 233.285L547.574 432.357C547.666 432.432 547.744 432.524 547.801 432.628C547.858 432.733 547.894 432.847 547.906 432.966C547.919 433.084 547.908 433.204 547.875 433.318C547.841 433.432 547.786 433.539 547.711 433.631C547.636 433.724 547.544 433.801 547.439 433.858C547.335 433.915 547.22 433.951 547.102 433.964C546.984 433.977 546.864 433.966 546.75 433.933C546.635 433.899 546.529 433.843 546.436 433.769Z" fill="#CCCCCC"/>
<path d="M532.786 450.71L285.722 251.639C285.629 251.564 285.552 251.472 285.495 251.367C285.438 251.263 285.402 251.148 285.389 251.03C285.377 250.911 285.387 250.792 285.421 250.678C285.454 250.563 285.51 250.457 285.585 250.364C285.66 250.271 285.752 250.194 285.856 250.137C285.961 250.08 286.075 250.044 286.194 250.032C286.312 250.019 286.432 250.03 286.546 250.063C286.66 250.097 286.767 250.152 286.859 250.227L533.923 449.298C534.016 449.373 534.093 449.465 534.15 449.57C534.208 449.674 534.244 449.789 534.256 449.907C534.269 450.026 534.259 450.146 534.225 450.26C534.192 450.374 534.136 450.481 534.061 450.574C533.986 450.666 533.894 450.744 533.79 450.801C533.685 450.858 533.57 450.894 533.452 450.906C533.333 450.919 533.213 450.908 533.099 450.874C532.985 450.841 532.878 450.785 532.786 450.71Z" fill="#CCCCCC"/>
<path d="M72.0691 81.6627C58.8253 81.5758 45.747 78.7114 33.6793 73.2547C32.9609 72.9346 32.3512 72.4124 31.9244 71.7518C31.4975 71.0913 31.272 70.3208 31.2753 69.5343V36.5204C31.2765 35.4389 31.7067 34.402 32.4715 33.6372C33.2362 32.8724 34.2731 32.4422 35.3547 32.441H108.784C109.865 32.4423 110.902 32.8724 111.667 33.6372C112.432 34.402 112.862 35.4389 112.863 36.5204V69.5344C112.866 70.3209 112.641 71.0913 112.214 71.7519C111.787 72.4124 111.177 72.9346 110.459 73.2548C98.3912 78.7115 85.3129 81.5758 72.0691 81.6627Z" fill="#2EB254"/>
<path d="M72.059 54.9174C71.5146 54.9179 70.9757 54.8096 70.4738 54.5987L12.2457 30.0322C11.4948 29.7154 10.856 29.181 10.4117 28.4978C9.96733 27.8146 9.73783 27.0139 9.75276 26.1991C9.76769 25.3843 10.0264 24.5926 10.4955 23.9261C10.9645 23.2597 11.6225 22.749 12.3845 22.4599L70.6133 0.369872C71.5512 0.0124442 72.5881 0.0146492 73.5245 0.376069L130.973 22.4661C131.731 22.7575 132.384 23.2683 132.85 23.9331C133.316 24.598 133.573 25.3867 133.588 26.1983C133.603 27.01 133.375 27.8076 132.934 28.4892C132.493 29.1708 131.859 29.7055 131.113 30.0246L73.6635 54.5908C73.1562 54.8068 72.6104 54.9179 72.059 54.9174Z" fill="#2EB254"/>
<path d="M38.0742 75.501C41.0782 75.501 43.5134 73.0658 43.5134 70.0619C43.5134 67.0579 41.0782 64.6227 38.0742 64.6227C35.0702 64.6227 32.635 67.0579 32.635 70.0619C32.635 73.0658 35.0702 75.501 38.0742 75.501Z" fill="#3F3D56"/>
<path opacity="0.2" d="M131.311 26.5376L73.8617 51.1038C73.4139 51.2953 72.932 51.3946 72.4449 51.3958C71.9578 51.3969 71.4754 51.3 71.0266 51.1106L12.7985 26.5448C12.0672 26.2436 11.4572 25.7074 11.0647 25.0208C10.8079 25.466 10.6488 25.9608 10.5979 26.4722C10.5471 26.9836 10.6055 27.5 10.7695 27.9871C10.9335 28.4742 11.1992 28.9208 11.549 29.2973C11.8989 29.6738 12.3248 29.9716 12.7985 30.1709L71.0266 54.7367C71.4754 54.9261 71.9578 55.0231 72.4449 55.0219C72.932 55.0207 73.4139 54.9214 73.8617 54.7299L131.311 30.1637C131.783 29.9626 132.206 29.6639 132.553 29.2872C132.901 28.9106 133.164 28.4645 133.327 27.9785C133.489 27.4924 133.546 26.9775 133.495 26.4676C133.444 25.9578 133.285 25.4647 133.029 25.0208C132.639 25.7018 132.035 26.2351 131.311 26.5376Z" fill="black"/>
<path d="M38.5312 70.0406C38.7717 70.0406 39.0023 69.9451 39.1723 69.7751C39.3423 69.6051 39.4378 69.3745 39.4378 69.1341V38.8003L69.3362 27.9083C69.5766 27.9119 69.8086 27.8198 69.9811 27.6523C70.1537 27.4848 70.2526 27.2557 70.2562 27.0152C70.2598 26.7748 70.1677 26.5428 70.0002 26.3703C69.8328 26.1977 69.6036 26.0988 69.3632 26.0952L39.4648 36.9873C39.2242 36.9818 38.9849 37.0251 38.7616 37.1147C38.5383 37.2044 38.3354 37.3384 38.1654 37.5087C37.9936 37.677 37.8572 37.878 37.7643 38.0998C37.6714 38.3216 37.624 38.5598 37.6247 38.8003V69.1341C37.6247 69.3745 37.7202 69.6051 37.8902 69.7751C38.0602 69.9451 38.2908 70.0406 38.5312 70.0406Z" fill="#3F3D56"/>
<path d="M69.3201 105.174C70.048 105.694 70.8811 106.049 71.7607 106.212C72.6404 106.376 73.5452 106.344 74.4114 106.12C75.2775 105.896 76.0841 105.485 76.7741 104.915C77.4642 104.346 78.0209 103.632 78.4052 102.824L116.931 106.731L111.782 96.6701L75.1352 94.4259C73.7351 93.8701 72.1797 93.8473 70.7639 94.3617C69.348 94.8761 68.1701 95.892 67.4533 97.2169C66.7364 98.5419 66.5305 100.084 66.8746 101.55C67.2187 103.017 68.0888 104.306 69.3201 105.174Z" fill="#FFB8B8"/>
<path d="M182.719 345.038H174.366L170.391 312.816H182.721L182.719 345.038Z" fill="#FFB6B6"/>
<path d="M182.496 342.31L173.577 338.682L173.322 338.577L168.397 342.31C165.617 342.31 162.95 343.415 160.984 345.381C159.018 347.347 157.913 350.013 157.913 352.794V353.134H184.847V342.31H182.496Z" fill="#2F2E41"/>
<path d="M242.312 345.038H233.958L229.984 312.816H242.313L242.312 345.038Z" fill="#FFB6B6"/>
<path d="M242.089 342.31L233.169 338.682L232.914 338.577L227.989 342.31C225.209 342.31 222.542 343.415 220.576 345.381C218.61 347.347 217.506 350.013 217.505 352.794V353.134H244.44V342.31H242.089Z" fill="#2F2E41"/>
<path d="M222.596 152.625C222.596 152.625 233.074 163.526 233.074 172.483C233.074 181.439 230.454 193.737 233.074 196.429C235.693 199.12 238.967 202.395 235.038 206.324C231.109 210.253 229.145 212.218 231.764 214.837C234.383 217.457 233.074 263.297 233.074 263.297L246.826 324.854H229.5L207.534 263.297L201.64 212.218L182.58 261.332L184.684 325.382L166.572 324.854L159.074 256.748C159.074 256.748 170.207 191.963 168.242 190.303C166.278 188.643 168.242 185.291 168.242 185.291L173.481 160.484L222.596 152.625Z" fill="#2F2E41"/>
<path d="M194.439 61.3202C194.439 61.3202 187.185 48.7834 172.626 57.3641C158.066 65.9449 120.871 95.0073 120.871 95.0073L86.3286 93.5554L88.7255 107.518L130.818 112.6L184.934 77.8788L194.439 61.3202Z" fill="#2EB254"/>
<path d="M89.3056 105.92C89.4662 104.726 89.4314 103.513 89.2027 102.33L87.9698 93.3937L87.1869 93.8032C86.0142 94.2149 84.9417 94.8698 84.0397 95.725C83.1378 96.5801 82.4267 97.6162 81.9532 98.7653C81.4796 99.9145 81.2542 101.151 81.2918 102.393C81.3294 103.635 81.6291 104.856 82.1712 105.974C82.6108 106.958 83.3185 107.799 84.2135 108.4C84.6627 108.695 85.1754 108.879 85.7095 108.938C86.2436 108.996 86.784 108.928 87.2864 108.737C87.8241 108.464 88.2882 108.065 88.6396 107.575C88.991 107.085 89.2194 106.517 89.3056 105.92Z" fill="#2EB254"/>
<path d="M233.941 114.008C233.941 114.008 232.277 127.741 233.587 129.004C234.897 130.262 232.277 138.218 229.658 143.457C227.038 148.696 231.622 149.351 231.622 153.28C231.622 157.209 233.587 171.616 233.587 171.616C233.587 171.616 213.286 172.926 210.012 169.652C206.738 166.377 201.499 168.997 194.295 176.2C187.092 183.404 171.447 177.51 168.173 174.236C164.898 170.961 170.72 159.174 172.685 156.888C174.649 154.603 170.792 157.249 168.828 150.006C166.863 142.763 170.72 143.457 173.994 140.183C177.269 136.909 173.994 131.015 171.375 125.121C168.756 119.227 170.72 75.3516 170.72 64.8738C170.72 54.396 185.127 53.0863 185.127 53.0863L190.831 45.9155L195.022 40.6439L203.234 40.3164L203.45 40.3099L211.394 39.989L215.251 44.4814L223.764 54.396L233.587 56.3606C241.445 58.98 239.481 75.3516 239.481 75.3516L233.941 114.008Z" fill="#2EB254"/>
<path d="M202.829 37.4757C212.126 37.4757 219.662 29.9391 219.662 20.6423C219.662 11.3454 212.126 3.80884 202.829 3.80884C193.532 3.80884 185.995 11.3454 185.995 20.6423C185.995 29.9391 193.532 37.4757 202.829 37.4757Z" fill="#FFB6B6"/>
<path d="M222.347 14.9795C217.717 12.14 218.31 4.71569 213.849 2.12312C211.632 0.844957 209.138 0.121385 206.581 0.0139939C204.024 -0.0933969 201.479 0.418571 199.163 1.50632C196.02 0.162055 192.256 1.23483 189.742 3.66228C187.229 6.08973 185.868 9.67077 185.467 13.2722C185.177 16.8906 185.437 20.532 186.237 24.0726C186.487 22.6501 186.737 21.2275 186.986 19.805L200.257 16.9046C199.082 17.9601 197.907 19.0156 196.732 20.0711C202.743 21.4393 209.049 20.4532 214.354 17.3153C220.131 19.9051 219.084 25.7215 214.013 33.4404C215.978 36.7147 227.622 18.2149 222.347 14.9795Z" fill="#2F2E41"/>
<path d="M215.251 44.4813C215.213 44.5118 215.174 44.5402 215.133 44.5664C213.745 45.3938 212.157 45.8242 210.542 45.8107C208.428 45.9871 206.329 45.3289 204.694 43.977C203.836 43.165 200.425 44.8807 198.185 45.8303C195.836 46.8039 193.202 46.8344 190.831 45.9154L195.022 40.6438L201.929 39.1123H203.654L211.394 39.989L215.251 44.4813Z" fill="#2EB254"/>
<path d="M236.262 173.512C237.033 173.059 237.695 172.442 238.202 171.704C238.709 170.967 239.049 170.128 239.196 169.245C239.343 168.363 239.296 167.459 239.056 166.597C238.816 165.735 238.39 164.936 237.808 164.256L257.042 130.647L245.757 131.26L228.806 163.829C227.729 164.883 227.076 166.294 226.971 167.797C226.865 169.299 227.314 170.789 228.233 171.982C229.152 173.176 230.477 173.991 231.957 174.273C233.437 174.555 234.968 174.284 236.262 173.512Z" fill="#FFB8B8"/>
<path d="M214.598 55.7057C214.598 55.7057 234.969 49.1571 240.208 64.8738C245.446 80.5905 263.058 123.157 263.058 123.157L244.137 161.793L235.624 152.625L244.722 125.776L218.528 86.4842L214.598 55.7057Z" fill="#2EB254"/>
<path d="M244.786 157.848C244.172 156.81 243.395 155.879 242.483 155.092L235.983 148.836L235.622 149.642C234.955 150.691 234.518 151.87 234.339 153.099C234.16 154.329 234.243 155.583 234.582 156.779C234.922 157.975 235.51 159.085 236.308 160.038C237.107 160.99 238.098 161.763 239.216 162.306C240.17 162.807 241.246 163.029 242.321 162.947C242.857 162.901 243.373 162.728 243.829 162.444C244.285 162.159 244.667 161.77 244.943 161.31C245.196 160.762 245.314 160.162 245.287 159.559C245.259 158.957 245.087 158.37 244.786 157.848Z" fill="#2EB254"/>
</svg>
