<svg width="703" height="511" viewBox="0 0 703 511" fill="none" xmlns="http://www.w3.org/2000/svg">
<path d="M409.26 90.0833C422.428 90.0833 433.103 79.4086 433.103 66.2407C433.103 53.0729 422.428 42.3982 409.26 42.3982C396.092 42.3982 385.417 53.0729 385.417 66.2407C385.417 79.4086 396.092 90.0833 409.26 90.0833Z" fill="#F2F2F2"/>
<path d="M543.297 49.3982C542.52 48.8803 541.734 48.3892 540.957 47.8891C518.5 33.5267 494.43 21.8587 469.244 13.1264L463.404 93.6888H426.382V1.36622C424.051 0.884024 421.703 0.428618 419.354 0V93.6888H375.359C351.138 93.6888 327.91 84.0673 310.784 66.9411C293.658 49.8148 284.036 26.5866 284.036 2.36643C281.679 2.87542 279.339 3.42004 277 4.00046V93.6888H241.165L235.602 16.8679C209.72 26.7943 185.148 39.8479 162.434 55.7382C162.041 56.0061 161.648 56.2829 161.264 56.5508C159.29 57.9349 157.344 59.3458 155.406 60.7745V368.12H261.016L259.15 342.269L248.881 200.334H455.68L445.411 342.269L443.545 368.12H547.984V52.5057C546.431 51.4521 544.868 50.4162 543.297 49.3982ZM277 176.894H247.184L241.674 100.725H277V176.894ZM419.354 176.894H369.278V175.385C369.278 174.66 369.135 173.941 368.857 173.271C368.579 172.601 368.172 171.992 367.658 171.48C367.145 170.967 366.535 170.561 365.865 170.284C365.194 170.007 364.476 169.865 363.75 169.867H341.98C341.255 169.866 340.537 170.009 339.868 170.286C339.198 170.563 338.59 170.97 338.077 171.482C337.565 171.995 337.158 172.603 336.881 173.273C336.604 173.943 336.461 174.66 336.462 175.385V176.894H284.036V100.725H419.354V176.894ZM426.382 176.894V100.725H462.895L457.385 176.894H426.382Z" fill="#3F3D56"/>
<path d="M0 387.802C7.75732 396.993 16.1477 405.631 25.1099 413.653L677.484 414.546C686.447 406.524 694.837 397.886 702.594 388.695L0 387.802Z" fill="#3F3D56"/>
<path d="M442.396 305.025V381.555C442.397 382.53 442.785 383.466 443.474 384.155C444.164 384.845 445.099 385.233 446.074 385.233H559.484C560.459 385.233 561.394 384.845 562.084 384.155C562.773 383.466 563.161 382.53 563.162 381.555V305.025C563.159 304.051 562.771 303.117 562.082 302.429C561.392 301.74 560.458 301.353 559.484 301.351H446.074C445.1 301.353 444.166 301.74 443.476 302.429C442.787 303.117 442.399 304.051 442.396 305.025Z" fill="#3F3D56"/>
<path d="M445.057 305.978V380.611C445.058 381.132 445.265 381.632 445.633 382C446.002 382.369 446.501 382.576 447.023 382.577H558.54C559.061 382.576 559.56 382.369 559.929 382C560.297 381.632 560.504 381.132 560.505 380.611V305.978C560.505 305.456 560.298 304.956 559.93 304.586C559.561 304.217 559.061 304.009 558.54 304.008H447.023C446.501 304.009 446.001 304.217 445.632 304.586C445.264 304.956 445.057 305.456 445.057 305.978Z" fill="#2EB254"/>
<path d="M440.024 396.48C440.232 396.741 440.496 396.951 440.797 397.095C441.097 397.239 441.427 397.312 441.76 397.311H563.194C563.527 397.31 563.854 397.236 564.154 397.093C564.454 396.95 564.718 396.742 564.927 396.484C565.136 396.226 565.285 395.925 565.363 395.602C565.442 395.279 565.447 394.943 565.379 394.618L563.494 385.664C563.415 385.299 563.247 384.959 563.004 384.676C562.761 384.392 562.451 384.174 562.102 384.041C561.85 383.942 561.581 383.891 561.309 383.891H443.637C443.366 383.891 443.097 383.942 442.844 384.041C442.496 384.174 442.185 384.392 441.942 384.676C441.699 384.959 441.531 385.299 441.453 385.664L439.568 394.618C439.501 394.943 439.507 395.279 439.586 395.601C439.665 395.923 439.815 396.223 440.024 396.48Z" fill="#2F2E41"/>
<path d="M557.143 387.748H560.011C560.252 387.748 560.447 387.553 560.447 387.312V385.94C560.447 385.699 560.252 385.504 560.011 385.504H557.143C556.902 385.504 556.707 385.699 556.707 385.94V387.312C556.707 387.553 556.902 387.748 557.143 387.748Z" fill="#3F3D56"/>
<path d="M549.662 387.748H552.531C552.771 387.748 552.967 387.553 552.967 387.312V385.94C552.967 385.699 552.771 385.504 552.531 385.504H549.662C549.422 385.504 549.227 385.699 549.227 385.94V387.312C549.227 387.553 549.422 387.748 549.662 387.748Z" fill="#3F3D56"/>
<path d="M542.182 387.748H545.05C545.291 387.748 545.486 387.553 545.486 387.312V385.94C545.486 385.699 545.291 385.504 545.05 385.504H542.182C541.941 385.504 541.746 385.699 541.746 385.94V387.312C541.746 387.553 541.941 387.748 542.182 387.748Z" fill="#3F3D56"/>
<path d="M534.702 387.748H537.57C537.811 387.748 538.006 387.553 538.006 387.312V385.94C538.006 385.699 537.811 385.504 537.57 385.504H534.702C534.461 385.504 534.266 385.699 534.266 385.94V387.312C534.266 387.553 534.461 387.748 534.702 387.748Z" fill="#3F3D56"/>
<path d="M527.222 387.748H530.09C530.331 387.748 530.526 387.553 530.526 387.312V385.94C530.526 385.699 530.331 385.504 530.09 385.504H527.222C526.981 385.504 526.786 385.699 526.786 385.94V387.312C526.786 387.553 526.981 387.748 527.222 387.748Z" fill="#3F3D56"/>
<path d="M519.741 387.748H522.61C522.85 387.748 523.046 387.553 523.046 387.312V385.94C523.046 385.699 522.85 385.504 522.61 385.504H519.741C519.501 385.504 519.305 385.699 519.305 385.94V387.312C519.305 387.553 519.501 387.748 519.741 387.748Z" fill="#3F3D56"/>
<path d="M512.261 387.748H515.129C515.37 387.748 515.565 387.553 515.565 387.312V385.94C515.565 385.699 515.37 385.504 515.129 385.504H512.261C512.02 385.504 511.825 385.699 511.825 385.94V387.312C511.825 387.553 512.02 387.748 512.261 387.748Z" fill="#3F3D56"/>
<path d="M504.781 387.748H507.649C507.89 387.748 508.085 387.553 508.085 387.312V385.94C508.085 385.699 507.89 385.504 507.649 385.504H504.781C504.54 385.504 504.345 385.699 504.345 385.94V387.312C504.345 387.553 504.54 387.748 504.781 387.748Z" fill="#3F3D56"/>
<path d="M497.301 387.748H500.169C500.41 387.748 500.605 387.553 500.605 387.312V385.94C500.605 385.699 500.41 385.504 500.169 385.504H497.301C497.06 385.504 496.865 385.699 496.865 385.94V387.312C496.865 387.553 497.06 387.748 497.301 387.748Z" fill="#3F3D56"/>
<path d="M489.82 387.748H492.689C492.929 387.748 493.125 387.553 493.125 387.312V385.94C493.125 385.699 492.929 385.504 492.689 385.504H489.82C489.58 385.504 489.384 385.699 489.384 385.94V387.312C489.384 387.553 489.58 387.748 489.82 387.748Z" fill="#3F3D56"/>
<path d="M482.34 387.748H485.208C485.449 387.748 485.644 387.553 485.644 387.312V385.94C485.644 385.699 485.449 385.504 485.208 385.504H482.34C482.099 385.504 481.904 385.699 481.904 385.94V387.312C481.904 387.553 482.099 387.748 482.34 387.748Z" fill="#3F3D56"/>
<path d="M474.86 387.748H477.728C477.969 387.748 478.164 387.553 478.164 387.312V385.94C478.164 385.699 477.969 385.504 477.728 385.504H474.86C474.619 385.504 474.424 385.699 474.424 385.94V387.312C474.424 387.553 474.619 387.748 474.86 387.748Z" fill="#3F3D56"/>
<path d="M467.38 387.748H470.248C470.489 387.748 470.684 387.553 470.684 387.312V385.94C470.684 385.699 470.489 385.504 470.248 385.504H467.38C467.139 385.504 466.944 385.699 466.944 385.94V387.312C466.944 387.553 467.139 387.748 467.38 387.748Z" fill="#3F3D56"/>
<path d="M459.899 387.748H462.768C463.008 387.748 463.204 387.553 463.204 387.312V385.94C463.204 385.699 463.008 385.504 462.768 385.504H459.899C459.659 385.504 459.463 385.699 459.463 385.94V387.312C459.463 387.553 459.659 387.748 459.899 387.748Z" fill="#3F3D56"/>
<path d="M452.419 387.748H455.287C455.528 387.748 455.723 387.553 455.723 387.312V385.94C455.723 385.699 455.528 385.504 455.287 385.504H452.419C452.178 385.504 451.983 385.699 451.983 385.94V387.312C451.983 387.553 452.178 387.748 452.419 387.748Z" fill="#3F3D56"/>
<path d="M444.939 387.748H447.807C448.048 387.748 448.243 387.553 448.243 387.312V385.94C448.243 385.699 448.048 385.504 447.807 385.504H444.939C444.698 385.504 444.503 385.699 444.503 385.94V387.312C444.503 387.553 444.698 387.748 444.939 387.748Z" fill="#3F3D56"/>
<path d="M557.231 391.488H560.099C560.34 391.488 560.535 391.293 560.535 391.052V389.68C560.535 389.439 560.34 389.244 560.099 389.244H557.231C556.99 389.244 556.795 389.439 556.795 389.68V391.052C556.795 391.293 556.99 391.488 557.231 391.488Z" fill="#3F3D56"/>
<path d="M549.751 391.488H552.619C552.86 391.488 553.055 391.293 553.055 391.052V389.68C553.055 389.439 552.86 389.244 552.619 389.244H549.751C549.51 389.244 549.315 389.439 549.315 389.68V391.052C549.315 391.293 549.51 391.488 549.751 391.488Z" fill="#3F3D56"/>
<path d="M542.271 391.488H545.139C545.38 391.488 545.575 391.293 545.575 391.052V389.68C545.575 389.439 545.38 389.244 545.139 389.244H542.271C542.03 389.244 541.835 389.439 541.835 389.68V391.052C541.835 391.293 542.03 391.488 542.271 391.488Z" fill="#3F3D56"/>
<path d="M534.79 391.488H537.659C537.899 391.488 538.094 391.293 538.094 391.052V389.68C538.094 389.439 537.899 389.244 537.659 389.244H534.79C534.55 389.244 534.354 389.439 534.354 389.68V391.052C534.354 391.293 534.55 391.488 534.79 391.488Z" fill="#3F3D56"/>
<path d="M527.31 391.488H530.178C530.419 391.488 530.614 391.293 530.614 391.052V389.68C530.614 389.439 530.419 389.244 530.178 389.244H527.31C527.069 389.244 526.874 389.439 526.874 389.68V391.052C526.874 391.293 527.069 391.488 527.31 391.488Z" fill="#3F3D56"/>
<path d="M519.83 391.488H522.698C522.939 391.488 523.134 391.293 523.134 391.052V389.68C523.134 389.439 522.939 389.244 522.698 389.244H519.83C519.589 389.244 519.394 389.439 519.394 389.68V391.052C519.394 391.293 519.589 391.488 519.83 391.488Z" fill="#3F3D56"/>
<path d="M512.35 391.488H515.218C515.459 391.488 515.654 391.293 515.654 391.052V389.68C515.654 389.439 515.459 389.244 515.218 389.244H512.35C512.109 389.244 511.914 389.439 511.914 389.68V391.052C511.914 391.293 512.109 391.488 512.35 391.488Z" fill="#3F3D56"/>
<path d="M504.869 391.488H507.737C507.978 391.488 508.173 391.293 508.173 391.052V389.68C508.173 389.439 507.978 389.244 507.737 389.244H504.869C504.628 389.244 504.433 389.439 504.433 389.68V391.052C504.433 391.293 504.628 391.488 504.869 391.488Z" fill="#3F3D56"/>
<path d="M497.389 391.488H500.257C500.498 391.488 500.693 391.293 500.693 391.052V389.68C500.693 389.439 500.498 389.244 500.257 389.244H497.389C497.148 389.244 496.953 389.439 496.953 389.68V391.052C496.953 391.293 497.148 391.488 497.389 391.488Z" fill="#3F3D56"/>
<path d="M489.909 391.488H492.777C493.018 391.488 493.213 391.293 493.213 391.052V389.68C493.213 389.439 493.018 389.244 492.777 389.244H489.909C489.668 389.244 489.473 389.439 489.473 389.68V391.052C489.473 391.293 489.668 391.488 489.909 391.488Z" fill="#3F3D56"/>
<path d="M482.428 391.488H485.297C485.537 391.488 485.733 391.293 485.733 391.052V389.68C485.733 389.439 485.537 389.244 485.297 389.244H482.428C482.188 389.244 481.993 389.439 481.993 389.68V391.052C481.993 391.293 482.188 391.488 482.428 391.488Z" fill="#3F3D56"/>
<path d="M474.948 391.488H477.816C478.057 391.488 478.252 391.293 478.252 391.052V389.68C478.252 389.439 478.057 389.244 477.816 389.244H474.948C474.707 389.244 474.512 389.439 474.512 389.68V391.052C474.512 391.293 474.707 391.488 474.948 391.488Z" fill="#3F3D56"/>
<path d="M467.468 391.488H470.336C470.577 391.488 470.772 391.293 470.772 391.052V389.68C470.772 389.439 470.577 389.244 470.336 389.244H467.468C467.227 389.244 467.032 389.439 467.032 389.68V391.052C467.032 391.293 467.227 391.488 467.468 391.488Z" fill="#3F3D56"/>
<path d="M459.988 391.488H462.856C463.097 391.488 463.292 391.293 463.292 391.052V389.68C463.292 389.439 463.097 389.244 462.856 389.244H459.988C459.747 389.244 459.552 389.439 459.552 389.68V391.052C459.552 391.293 459.747 391.488 459.988 391.488Z" fill="#3F3D56"/>
<path d="M452.507 391.488H455.376C455.616 391.488 455.812 391.293 455.812 391.052V389.68C455.812 389.439 455.616 389.244 455.376 389.244H452.507C452.267 389.244 452.071 389.439 452.071 389.68V391.052C452.071 391.293 452.267 391.488 452.507 391.488Z" fill="#3F3D56"/>
<path d="M445.027 391.488H447.895C448.136 391.488 448.331 391.293 448.331 391.052V389.68C448.331 389.439 448.136 389.244 447.895 389.244H445.027C444.786 389.244 444.591 389.439 444.591 389.68V391.052C444.591 391.293 444.786 391.488 445.027 391.488Z" fill="#3F3D56"/>
<path d="M495.145 395.976H524.194C524.435 395.976 524.63 395.781 524.63 395.54V394.168C524.63 393.927 524.435 393.732 524.194 393.732H495.145C494.904 393.732 494.709 393.927 494.709 394.168V395.54C494.709 395.781 494.904 395.976 495.145 395.976Z" fill="#3F3D56"/>
<path d="M464.368 320.336H461.829C461.059 320.336 460.435 320.96 460.435 321.73C460.435 322.5 461.059 323.124 461.829 323.124H464.368C465.138 323.124 465.762 322.5 465.762 321.73C465.762 320.96 465.138 320.336 464.368 320.336Z" fill="white"/>
<path d="M493.41 320.336H490.87C490.101 320.336 489.477 320.96 489.477 321.73C489.477 322.5 490.101 323.124 490.87 323.124H493.41C494.18 323.124 494.804 322.5 494.804 321.73C494.804 320.96 494.18 320.336 493.41 320.336Z" fill="white"/>
<path d="M501.638 320.336H499.099C498.329 320.336 497.705 320.96 497.705 321.73C497.705 322.5 498.329 323.124 499.099 323.124H501.638C502.408 323.124 503.032 322.5 503.032 321.73C503.032 320.96 502.408 320.336 501.638 320.336Z" fill="white"/>
<path d="M485.51 320.103H469.728C468.958 320.103 468.334 320.727 468.334 321.497C468.334 322.267 468.958 322.891 469.728 322.891H485.51C486.28 322.891 486.904 322.267 486.904 321.497C486.904 320.727 486.28 320.103 485.51 320.103Z" fill="white"/>
<path d="M524.232 320.103H508.45C507.681 320.103 507.056 320.727 507.056 321.497C507.056 322.267 507.681 322.891 508.45 322.891H524.232C525.002 322.891 525.626 322.267 525.626 321.497C525.626 320.727 525.002 320.103 524.232 320.103Z" fill="white"/>
<path d="M472.113 326.628H469.573C468.803 326.628 468.179 327.252 468.179 328.022C468.179 328.792 468.803 329.416 469.573 329.416H472.113C472.882 329.416 473.507 328.792 473.507 328.022C473.507 327.252 472.882 326.628 472.113 326.628Z" fill="white"/>
<path d="M501.154 326.628H498.615C497.845 326.628 497.221 327.252 497.221 328.022C497.221 328.792 497.845 329.416 498.615 329.416H501.154C501.924 329.416 502.548 328.792 502.548 328.022C502.548 327.252 501.924 326.628 501.154 326.628Z" fill="white"/>
<path d="M509.383 326.628H506.843C506.073 326.628 505.449 327.252 505.449 328.022C505.449 328.792 506.073 329.416 506.843 329.416H509.383C510.152 329.416 510.777 328.792 510.777 328.022C510.777 327.252 510.152 326.628 509.383 326.628Z" fill="white"/>
<path d="M493.255 326.396H477.473C476.703 326.396 476.079 327.02 476.079 327.79C476.079 328.56 476.703 329.184 477.473 329.184H493.255C494.025 329.184 494.649 328.56 494.649 327.79C494.649 327.02 494.025 326.396 493.255 326.396Z" fill="white"/>
<path d="M531.977 326.396H516.195C515.425 326.396 514.801 327.02 514.801 327.79C514.801 328.56 515.425 329.184 516.195 329.184H531.977C532.747 329.184 533.371 328.56 533.371 327.79C533.371 327.02 532.747 326.396 531.977 326.396Z" fill="white"/>
<path d="M479.857 332.92H477.318C476.548 332.92 475.924 333.545 475.924 334.314C475.924 335.084 476.548 335.708 477.318 335.708H479.857C480.627 335.708 481.251 335.084 481.251 334.314C481.251 333.545 480.627 332.92 479.857 332.92Z" fill="white"/>
<path d="M508.899 332.92H506.359C505.589 332.92 504.965 333.545 504.965 334.314C504.965 335.084 505.589 335.708 506.359 335.708H508.899C509.668 335.708 510.293 335.084 510.293 334.314C510.293 333.545 509.668 332.92 508.899 332.92Z" fill="white"/>
<path d="M517.127 332.92H514.588C513.818 332.92 513.194 333.545 513.194 334.314C513.194 335.084 513.818 335.708 514.588 335.708H517.127C517.897 335.708 518.521 335.084 518.521 334.314C518.521 333.545 517.897 332.92 517.127 332.92Z" fill="white"/>
<path d="M500.999 332.688H485.217C484.447 332.688 483.823 333.312 483.823 334.082C483.823 334.852 484.447 335.476 485.217 335.476H500.999C501.769 335.476 502.393 334.852 502.393 334.082C502.393 333.312 501.769 332.688 500.999 332.688Z" fill="white"/>
<path d="M539.721 332.688H523.939C523.169 332.688 522.545 333.312 522.545 334.082C522.545 334.852 523.169 335.476 523.939 335.476H539.721C540.491 335.476 541.115 334.852 541.115 334.082C541.115 333.312 540.491 332.688 539.721 332.688Z" fill="white"/>
<path d="M487.601 339.213H485.062C484.292 339.213 483.668 339.837 483.668 340.607C483.668 341.377 484.292 342.001 485.062 342.001H487.601C488.371 342.001 488.995 341.377 488.995 340.607C488.995 339.837 488.371 339.213 487.601 339.213Z" fill="white"/>
<path d="M516.643 339.213H514.104C513.334 339.213 512.71 339.837 512.71 340.607C512.71 341.377 513.334 342.001 514.104 342.001H516.643C517.413 342.001 518.037 341.377 518.037 340.607C518.037 339.837 517.413 339.213 516.643 339.213Z" fill="white"/>
<path d="M524.872 339.213H522.332C521.562 339.213 520.938 339.837 520.938 340.607C520.938 341.377 521.562 342.001 522.332 342.001H524.872C525.641 342.001 526.265 341.377 526.265 340.607C526.265 339.837 525.641 339.213 524.872 339.213Z" fill="white"/>
<path d="M508.744 338.98H492.962C492.192 338.98 491.568 339.604 491.568 340.374C491.568 341.144 492.192 341.768 492.962 341.768H508.744C509.514 341.768 510.138 341.144 510.138 340.374C510.138 339.604 509.514 338.98 508.744 338.98Z" fill="white"/>
<path d="M493.41 364.234H490.87C490.101 364.234 489.477 364.858 489.477 365.628C489.477 366.398 490.101 367.022 490.87 367.022H493.41C494.18 367.022 494.804 366.398 494.804 365.628C494.804 364.858 494.18 364.234 493.41 364.234Z" fill="white"/>
<path d="M501.638 364.234H499.099C498.329 364.234 497.705 364.858 497.705 365.628C497.705 366.398 498.329 367.022 499.099 367.022H501.638C502.408 367.022 503.032 366.398 503.032 365.628C503.032 364.858 502.408 364.234 501.638 364.234Z" fill="white"/>
<path d="M524.232 364.466H508.45C507.681 364.466 507.056 365.09 507.056 365.86C507.056 366.63 507.681 367.254 508.45 367.254H524.232C525.002 367.254 525.626 366.63 525.626 365.86C525.626 365.09 525.002 364.466 524.232 364.466Z" fill="white"/>
<path d="M464.368 364.234H461.829C461.059 364.234 460.435 364.858 460.435 365.628C460.435 366.398 461.059 367.022 461.829 367.022H464.368C465.138 367.022 465.762 366.398 465.762 365.628C465.762 364.858 465.138 364.234 464.368 364.234Z" fill="white"/>
<path d="M485.51 364.466H469.728C468.958 364.466 468.334 365.09 468.334 365.86C468.334 366.63 468.958 367.254 469.728 367.254H485.51C486.28 367.254 486.904 366.63 486.904 365.86C486.904 365.09 486.28 364.466 485.51 364.466Z" fill="white"/>
<path d="M472.113 357.941H469.573C468.803 357.941 468.179 358.565 468.179 359.335C468.179 360.105 468.803 360.729 469.573 360.729H472.113C472.882 360.729 473.507 360.105 473.507 359.335C473.507 358.565 472.882 357.941 472.113 357.941Z" fill="white"/>
<path d="M501.154 357.941H498.615C497.845 357.941 497.221 358.565 497.221 359.335C497.221 360.105 497.845 360.729 498.615 360.729H501.154C501.924 360.729 502.548 360.105 502.548 359.335C502.548 358.565 501.924 357.941 501.154 357.941Z" fill="white"/>
<path d="M509.383 357.941H506.843C506.073 357.941 505.449 358.565 505.449 359.335C505.449 360.105 506.073 360.729 506.843 360.729H509.383C510.152 360.729 510.777 360.105 510.777 359.335C510.777 358.565 510.152 357.941 509.383 357.941Z" fill="white"/>
<path d="M493.255 358.174H477.473C476.703 358.174 476.079 358.798 476.079 359.568C476.079 360.338 476.703 360.962 477.473 360.962H493.255C494.025 360.962 494.649 360.338 494.649 359.568C494.649 358.798 494.025 358.174 493.255 358.174Z" fill="white"/>
<path d="M479.857 351.649H477.318C476.548 351.649 475.924 352.273 475.924 353.043C475.924 353.813 476.548 354.437 477.318 354.437H479.857C480.627 354.437 481.251 353.813 481.251 353.043C481.251 352.273 480.627 351.649 479.857 351.649Z" fill="white"/>
<path d="M508.899 351.649H506.359C505.589 351.649 504.965 352.273 504.965 353.043C504.965 353.813 505.589 354.437 506.359 354.437H508.899C509.668 354.437 510.293 353.813 510.293 353.043C510.293 352.273 509.668 351.649 508.899 351.649Z" fill="white"/>
<path d="M517.127 351.649H514.588C513.818 351.649 513.194 352.273 513.194 353.043C513.194 353.813 513.818 354.437 514.588 354.437H517.127C517.897 354.437 518.521 353.813 518.521 353.043C518.521 352.273 517.897 351.649 517.127 351.649Z" fill="white"/>
<path d="M500.999 351.882H485.217C484.447 351.882 483.823 352.506 483.823 353.276C483.823 354.045 484.447 354.67 485.217 354.67H500.999C501.769 354.67 502.393 354.045 502.393 353.276C502.393 352.506 501.769 351.882 500.999 351.882Z" fill="white"/>
<path d="M487.601 345.357H485.062C484.292 345.357 483.668 345.981 483.668 346.751C483.668 347.521 484.292 348.145 485.062 348.145H487.601C488.371 348.145 488.995 347.521 488.995 346.751C488.995 345.981 488.371 345.357 487.601 345.357Z" fill="white"/>
<path d="M516.643 345.357H514.104C513.334 345.357 512.71 345.981 512.71 346.751C512.71 347.521 513.334 348.145 514.104 348.145H516.643C517.413 348.145 518.037 347.521 518.037 346.751C518.037 345.981 517.413 345.357 516.643 345.357Z" fill="white"/>
<path d="M524.872 345.357H522.332C521.562 345.357 520.938 345.981 520.938 346.751C520.938 347.521 521.562 348.145 522.332 348.145H524.872C525.641 348.145 526.265 347.521 526.265 346.751C526.265 345.981 525.641 345.357 524.872 345.357Z" fill="white"/>
<path d="M508.744 345.589H492.962C492.192 345.589 491.568 346.213 491.568 346.983C491.568 347.753 492.192 348.377 492.962 348.377H508.744C509.514 348.377 510.138 347.753 510.138 346.983C510.138 346.213 509.514 345.589 508.744 345.589Z" fill="white"/>
<path d="M450.868 437.978L438.947 419.135L476.364 389.308L491.808 372.198C493.814 369.975 496.369 368.317 499.217 367.391C502.065 366.465 505.105 366.302 508.036 366.919C510.966 367.537 513.683 368.912 515.915 370.908C518.147 372.904 519.816 375.451 520.756 378.295C522.148 382.508 521.848 387.098 519.921 391.095C517.993 395.092 514.588 398.183 510.424 399.717L486.003 408.714L450.868 437.978Z" fill="#FFB6B6"/>
<path d="M171.17 301.355V392.936H235.329V301.355C235.33 300.696 235.12 300.055 234.729 299.524C234.339 298.994 233.789 298.603 233.159 298.408C232.863 298.31 232.552 298.262 232.24 298.265H174.269C173.863 298.265 173.46 298.344 173.084 298.499C172.709 298.654 172.367 298.881 172.079 299.168C171.792 299.455 171.563 299.796 171.407 300.171C171.251 300.546 171.171 300.949 171.17 301.355ZM196.209 332.823C196.226 331.017 196.954 329.291 198.237 328.021C199.52 326.75 201.252 326.037 203.058 326.037C204.863 326.037 206.596 326.75 207.878 328.021C209.161 329.291 209.89 331.017 209.907 332.823V343.449C209.897 345.259 209.172 346.992 207.888 348.269C206.605 349.546 204.868 350.263 203.058 350.263C201.247 350.263 199.511 349.546 198.227 348.269C196.944 346.992 196.218 345.259 196.209 343.449V332.823Z" fill="#2F2E41"/>
<path d="M170.974 390.008V398.839C170.975 399.296 171.157 399.735 171.48 400.059C171.802 400.383 172.24 400.567 172.697 400.571H233.802C234.26 400.569 234.698 400.385 235.021 400.061C235.344 399.736 235.526 399.297 235.526 398.839V390.008H170.974Z" fill="#3F3D56"/>
<path d="M70.2397 163.376V330.59C70.2414 332.721 71.0886 334.764 72.5954 336.271C74.1022 337.778 76.1454 338.625 78.2763 338.627H326.071C328.202 338.625 330.245 337.778 331.752 336.271C333.259 334.764 334.106 332.721 334.108 330.59V163.376C334.103 161.247 333.254 159.206 331.748 157.702C330.241 156.197 328.2 155.351 326.071 155.348H78.2763C76.1472 155.351 74.106 156.197 72.5997 157.702C71.0934 159.206 70.2448 161.247 70.2397 163.376Z" fill="#3F3D56"/>
<path d="M76.0529 165.456V328.528C76.0548 329.666 76.508 330.757 77.313 331.562C78.1181 332.368 79.2094 332.821 80.348 332.823H324.008C325.147 332.821 326.238 332.368 327.043 331.562C327.848 330.757 328.302 329.666 328.304 328.528V165.456C328.303 164.316 327.851 163.223 327.046 162.416C326.241 161.609 325.148 161.155 324.008 161.152H80.348C79.208 161.155 78.1157 161.609 77.3105 162.416C76.5052 163.223 76.053 164.316 76.0529 165.456Z" fill="white"/>
<path d="M121.272 399.973C121.52 400.284 121.835 400.534 122.194 400.706C122.553 400.878 122.946 400.966 123.344 400.964H268.306C268.702 400.963 269.094 400.875 269.452 400.704C269.809 400.533 270.125 400.285 270.374 399.977C270.624 399.669 270.802 399.309 270.895 398.924C270.988 398.539 270.995 398.137 270.913 397.749L268.663 387.061C268.57 386.625 268.369 386.219 268.079 385.881C267.789 385.542 267.419 385.282 267.002 385.123C266.701 385.005 266.38 384.944 266.056 384.944H125.585C125.261 384.944 124.94 385.005 124.639 385.123C124.222 385.282 123.852 385.542 123.562 385.881C123.272 386.219 123.071 386.625 122.978 387.061L120.727 397.749C120.647 398.137 120.655 398.538 120.749 398.922C120.843 399.307 121.022 399.666 121.272 399.973Z" fill="#2F2E41"/>
<path d="M316.101 183.616H88.1088C87.8718 183.611 87.6463 183.513 87.4806 183.343C87.3149 183.174 87.2221 182.946 87.2221 182.709C87.2221 182.472 87.3149 182.245 87.4806 182.075C87.6463 181.906 87.8718 181.808 88.1088 181.803H316.101C316.338 181.808 316.563 181.906 316.729 182.075C316.895 182.245 316.988 182.472 316.988 182.709C316.988 182.946 316.895 183.174 316.729 183.343C316.563 183.513 316.338 183.611 316.101 183.616Z" fill="#3F3D56"/>
<path d="M103.628 177.173C106.563 177.173 108.942 174.742 108.942 171.742C108.942 168.742 106.563 166.31 103.628 166.31C100.694 166.31 98.315 168.742 98.315 171.742C98.315 174.742 100.694 177.173 103.628 177.173Z" fill="#3F3D56"/>
<path d="M121.984 177.173C124.919 177.173 127.298 174.742 127.298 171.742C127.298 168.742 124.919 166.31 121.984 166.31C119.05 166.31 116.671 168.742 116.671 171.742C116.671 174.742 119.05 177.173 121.984 177.173Z" fill="#3F3D56"/>
<path d="M140.34 177.173C143.274 177.173 145.653 174.742 145.653 171.742C145.653 168.742 143.274 166.31 140.34 166.31C137.405 166.31 135.026 168.742 135.026 171.742C135.026 174.742 137.405 177.173 140.34 177.173Z" fill="#3F3D56"/>
<path d="M305.048 167.653H292.011C291.753 167.659 291.508 167.766 291.328 167.95C291.147 168.134 291.047 168.382 291.047 168.64C291.047 168.897 291.147 169.145 291.328 169.329C291.508 169.514 291.753 169.62 292.011 169.626H305.048C305.307 169.623 305.554 169.517 305.737 169.333C305.919 169.148 306.021 168.899 306.021 168.64C306.021 168.38 305.919 168.131 305.737 167.947C305.554 167.762 305.307 167.657 305.048 167.653Z" fill="#3F3D56"/>
<path d="M305.048 171.359H292.011C291.753 171.364 291.507 171.471 291.327 171.655C291.146 171.84 291.045 172.087 291.045 172.345C291.045 172.603 291.146 172.851 291.327 173.035C291.507 173.22 291.753 173.326 292.011 173.332H305.048C305.307 173.329 305.555 173.224 305.738 173.039C305.92 172.854 306.023 172.605 306.023 172.345C306.023 172.086 305.92 171.837 305.738 171.652C305.555 171.467 305.307 171.362 305.048 171.359Z" fill="#3F3D56"/>
<path d="M305.048 175.064H292.011C291.753 175.07 291.508 175.177 291.328 175.361C291.147 175.546 291.047 175.793 291.047 176.051C291.047 176.309 291.147 176.556 291.328 176.741C291.508 176.925 291.753 177.032 292.011 177.038H305.048C305.307 177.034 305.554 176.929 305.737 176.744C305.919 176.559 306.021 176.31 306.021 176.051C306.021 175.792 305.919 175.543 305.737 175.358C305.554 175.174 305.307 175.068 305.048 175.064Z" fill="#3F3D56"/>
<path d="M619.349 393.883C619.743 395.029 620.489 396.02 621.481 396.715C622.473 397.41 623.66 397.772 624.871 397.751L648.526 397.142C649.746 397.118 650.926 396.7 651.888 395.951C652.851 395.201 653.545 394.16 653.867 392.983L657.215 357.187C658.402 357.725 659.695 357.991 660.999 357.965C662.132 357.936 663.247 357.685 664.283 357.225C665.318 356.766 666.253 356.107 667.034 355.286C667.815 354.465 668.426 353.498 668.833 352.441C669.24 351.384 669.435 350.256 669.407 349.124C669.378 347.991 669.127 346.875 668.668 345.84C668.208 344.804 667.549 343.87 666.728 343.089C665.907 342.308 664.94 341.697 663.883 341.29C662.826 340.882 661.699 340.688 660.566 340.716C660.045 340.714 659.525 340.768 659.016 340.877C658.462 340.278 657.788 339.801 657.038 339.477C656.289 339.154 655.48 338.991 654.663 338.999L618.275 339.939C617.973 339.95 617.673 339.987 617.377 340.05C616.579 340.199 615.823 340.517 615.158 340.983C614.493 341.449 613.936 342.052 613.523 342.751C613.111 343.45 612.853 344.229 612.767 345.037C612.682 345.844 612.77 346.66 613.026 347.43L619.349 393.883ZM657.901 354.757L660.283 346.227C660.554 345.241 660.561 344.202 660.301 343.213C660.417 343.213 660.519 343.158 660.635 343.158C662.268 343.124 663.848 343.739 665.028 344.869C666.209 345.998 666.893 347.55 666.931 349.183C666.969 350.816 666.359 352.398 665.232 353.581C664.106 354.765 662.557 355.453 660.924 355.496C659.868 355.529 658.823 355.273 657.901 354.757Z" fill="#2F2E41"/>
<path d="M617.377 340.05C618.153 344.483 626.869 347.599 637.349 347.058C646.987 346.614 654.867 343.23 656.31 339.219C655.776 339.061 655.22 338.987 654.663 338.999L618.275 339.939C617.973 339.95 617.673 339.987 617.377 340.05Z" fill="#3F3D56"/>
<path d="M639.27 374.213C639.318 374.201 639.363 374.181 639.405 374.154L644.542 370.791C644.604 370.751 644.655 370.695 644.69 370.63C644.726 370.565 644.744 370.492 644.744 370.418C644.744 370.344 644.726 370.271 644.691 370.206C644.655 370.14 644.604 370.085 644.542 370.044L639.203 366.547C639.154 366.515 639.099 366.492 639.041 366.481C638.983 366.47 638.924 366.47 638.866 366.482C638.809 366.494 638.754 366.517 638.706 366.55C638.657 366.583 638.615 366.625 638.583 366.674C638.551 366.724 638.529 366.779 638.518 366.836C638.507 366.894 638.508 366.953 638.52 367.011C638.532 367.068 638.555 367.123 638.588 367.171C638.622 367.22 638.664 367.261 638.713 367.293L643.482 370.417L638.916 373.407C638.827 373.464 638.762 373.552 638.732 373.653C638.702 373.754 638.709 373.863 638.751 373.96C638.794 374.056 638.869 374.135 638.964 374.181C639.059 374.228 639.167 374.239 639.27 374.213Z" fill="#2EB254"/>
<path d="M631.156 374.587C631.242 374.566 631.32 374.518 631.379 374.452C631.438 374.386 631.476 374.303 631.489 374.215C631.501 374.127 631.486 374.037 631.447 373.958C631.408 373.878 631.345 373.811 631.268 373.767L626.533 371.052L631.11 367.653C631.157 367.618 631.197 367.574 631.227 367.524C631.257 367.473 631.277 367.418 631.285 367.36C631.294 367.302 631.291 367.243 631.276 367.186C631.262 367.129 631.237 367.075 631.202 367.028C631.167 366.981 631.123 366.942 631.073 366.912C631.023 366.882 630.967 366.862 630.909 366.853C630.851 366.845 630.792 366.848 630.735 366.862C630.678 366.876 630.625 366.901 630.578 366.936L625.453 370.743C625.394 370.787 625.346 370.845 625.315 370.912C625.283 370.979 625.269 371.053 625.274 371.127C625.278 371.201 625.301 371.273 625.34 371.336C625.379 371.399 625.433 371.451 625.497 371.488L630.824 374.542C630.924 374.599 631.043 374.616 631.156 374.587Z" fill="#2EB254"/>
<path d="M638.759 377.16C638.802 377.149 638.843 377.132 638.881 377.108C638.931 377.078 638.975 377.038 639.01 376.99C639.044 376.943 639.069 376.889 639.083 376.832C639.097 376.775 639.1 376.716 639.091 376.658C639.082 376.6 639.061 376.545 639.031 376.495L631.748 364.521C631.687 364.421 631.587 364.348 631.472 364.32C631.357 364.293 631.236 364.312 631.135 364.373C631.034 364.435 630.961 364.534 630.933 364.649C630.905 364.764 630.924 364.885 630.985 364.986L638.268 376.959C638.318 377.041 638.392 377.104 638.48 377.14C638.569 377.176 638.666 377.183 638.759 377.16Z" fill="#2EB254"/>
<path d="M229.346 232.907H189.886C188.276 232.907 186.971 234.212 186.971 235.822V239.677C186.971 241.286 188.276 242.591 189.886 242.591H229.346C230.956 242.591 232.261 241.286 232.261 239.677V235.822C232.261 234.212 230.956 232.907 229.346 232.907Z" fill="#2EB254"/>
<path d="M252.347 252.276H166.884C165.275 252.276 163.97 253.581 163.97 255.191V259.046C163.97 260.656 165.275 261.961 166.884 261.961H252.347C253.957 261.961 255.262 260.656 255.262 259.046V255.191C255.262 253.581 253.957 252.276 252.347 252.276Z" fill="#E6E6E6"/>
<path d="M252.347 271.646H166.884C165.275 271.646 163.97 272.951 163.97 274.56V278.415C163.97 280.025 165.275 281.33 166.884 281.33H252.347C253.957 281.33 255.262 280.025 255.262 278.415V274.56C255.262 272.951 253.957 271.646 252.347 271.646Z" fill="#E6E6E6"/>
<path d="M259.592 336.506L259.785 337.117L259.796 337.138L265.622 354.852L272.325 375.266L284.936 413.628L285.058 419.588V419.608L285.995 467.546L283.398 474.045L286.321 484.7C286.321 484.7 284.977 468.594 277.765 477.843C273.68 483.099 268.902 488.478 264.98 493.52C270.695 495.832 276.501 497.924 282.399 499.795C283.673 500.202 284.956 500.589 286.24 500.977C286.515 501.058 286.79 501.14 287.065 501.221C306.616 507.003 326.828 510.252 347.206 510.888C348.265 510.919 349.305 510.939 350.313 510.959C350.67 510.97 351.016 510.98 351.362 510.98C352.503 510.99 353.634 511 354.775 511C357.077 511 359.369 510.966 361.651 510.898C378.539 510.422 395.329 508.151 411.738 504.124C411.626 497.35 411.32 489.435 410.882 480.98C410.678 476.834 406.105 472.342 405.83 468.003C405.636 464.743 409.741 461.677 409.527 458.366C408.142 437.983 406.41 445.808 405.127 431.373C404.994 429.957 404.872 428.603 404.76 427.309C403.935 418.039 403.364 412.243 403.364 412.243L408.845 377.701L417.452 323.467L416.79 322.377L416.047 322.011L370.645 299.539L368.18 293.224C367.462 291.404 366.216 289.841 364.602 288.736C362.988 287.63 361.08 287.033 359.124 287.02L329.217 286.898C327.665 286.891 326.133 287.254 324.75 287.957C323.366 288.661 322.17 289.684 321.261 290.942L313.163 302.157L259.592 336.506Z" fill="#3F3D56"/>
<path d="M291.832 405.092L285.058 419.588L280.434 429.489L272.478 471.142L268.495 475.369L265.082 460.404L229.366 468.334C228.195 461.825 229.053 468.554 228.329 461.413C228.533 461.21 228.747 461.006 228.961 460.802C229.531 460.272 230.01 459.773 230 459.295C229.592 434.664 230.815 392.746 241.022 367.351C242.62 363.205 244.728 359.273 247.297 355.647C247.5 355.372 247.694 355.096 247.887 354.822C252.594 348.231 255.568 341.742 259.785 337.128V337.117C259.812 337.096 259.836 337.072 259.857 337.046C259.872 337.038 259.886 337.028 259.897 337.015L288.868 321.654L290.111 356.574L290.997 381.673L291.832 405.092Z" fill="#3F3D56"/>
<path d="M396.294 409.209L404.756 427.314L407.709 433.619L415.663 475.268L419.633 479.485L423.053 464.523L424.66 464.194L453.644 458.191L462.092 485.021C463.996 481.848 464.746 478.116 464.215 474.454C463.685 470.792 461.906 467.426 459.18 464.924C458.603 464.402 458.122 463.894 458.136 463.413C458.617 434.443 456.845 381.544 440.842 359.772C435.759 352.862 432.71 345.98 428.273 341.173C428.259 341.159 428.259 341.145 428.245 341.145L417.448 323.466L416.789 322.381L416.047 322.01L396.294 409.209Z" fill="#3F3D56"/>
<path d="M345.034 278.386C367.009 278.386 384.823 260.572 384.823 238.598C384.823 216.623 367.009 198.809 345.034 198.809C323.06 198.809 305.246 216.623 305.246 238.598C305.246 260.572 323.06 278.386 345.034 278.386Z" fill="#FFB6B6"/>
<path d="M398.813 210.806C398.505 210.476 398.133 210.212 397.72 210.03C397.308 209.847 396.862 209.75 396.411 209.743L397.009 208.082C397.205 207.559 397.257 206.994 397.162 206.443C397.067 205.893 396.827 205.378 396.467 204.951C396.107 204.524 395.641 204.2 395.115 204.013C394.588 203.826 394.022 203.782 393.473 203.885L391.295 204.305L391.5 202.85C391.579 202.308 391.515 201.754 391.315 201.244C391.115 200.734 390.786 200.285 390.36 199.941C389.934 199.597 389.425 199.369 388.885 199.281C388.344 199.193 387.79 199.247 387.276 199.439C386.809 199.622 386.307 199.699 385.806 199.664C385.306 199.628 384.819 199.481 384.383 199.233C383.945 198.993 383.565 198.66 383.268 198.257C382.972 197.855 382.768 197.392 382.669 196.903L381.91 193.241L381.829 193.045C378.132 186.884 371.025 182.401 362.327 180.758C354.585 179.285 346.647 180.035 338.994 180.74C335.958 181.026 332.529 181.347 329.672 183.097C327.243 184.598 325.189 187.598 325.609 190.625C318.063 188.312 309.973 192.929 305.964 198.751C301.213 205.68 300.436 214.36 300.311 221.146C299.972 237.202 303.285 250.337 310.134 260.195C310.634 260.909 310.759 262.401 311.75 262.901L311.545 262.57C312.652 263.124 313.777 264.017 313.358 264.972C312.152 267.723 320.162 273.804 325.805 275.813C336.101 279.483 349.79 279.17 359.416 277.849L359.755 275.572C363.229 275.099 365.676 274.197 366.363 272.786C367.578 271.75 368.614 270.821 369.515 269.964L369.524 269.955C369.542 269.937 369.578 269.91 369.596 269.893C373.944 265.722 374.953 263.347 375.409 259.731C375.846 256.186 375.07 252.587 374.275 249.346C391.009 251.935 367.685 231.522 383.276 227.576C383.455 227.52 383.637 227.476 383.821 227.442C384.276 227.334 384.731 227.227 385.169 227.102C387.278 226.53 389.298 225.667 391.17 224.539C395.527 221.887 396.965 218.369 399.215 214.404C399.54 213.84 399.676 213.187 399.604 212.539C399.531 211.892 399.254 211.285 398.813 210.806Z" fill="#2F2E41"/>
<path d="M485.76 412.042C485.751 413.605 485.733 415.792 485.662 418.498C485.653 418.873 485.644 419.257 485.635 419.65C485.519 424.624 485.403 428.794 485.215 433.428C485.207 433.75 485.198 434.062 485.18 434.384C484.93 440.849 484.537 448.376 483.858 460.297C482.599 482.318 480.402 463.324 478.197 471.048C478.09 471.432 477.974 471.888 477.866 472.424C477.532 474.368 476.969 476.265 476.188 478.076C475.018 478.772 473.812 479.442 472.625 480.112C469.24 481.996 465.803 483.809 462.338 485.532C460.391 486.497 458.436 487.443 456.471 488.354C456.159 488.497 455.855 488.64 455.552 488.774C445.492 493.427 435.124 497.383 424.521 500.614C422.45 501.239 420.387 501.846 418.298 502.409C416.119 503.016 413.94 503.588 411.734 504.124C395.326 508.152 378.537 510.424 361.649 510.901C359.371 510.972 357.077 510.999 354.773 510.999C353.63 510.999 352.505 510.99 351.362 510.981C351.013 510.981 350.665 510.972 350.317 510.964C349.308 510.937 348.263 510.919 347.209 510.892C326.831 510.256 306.619 507.006 287.069 501.221L286.239 500.98C284.953 500.587 283.676 500.203 282.399 499.793C276.505 497.926 270.698 495.837 264.977 493.524C260.611 491.765 256.295 489.878 252.029 487.863C251.99 487.852 251.954 487.834 251.922 487.809C251.029 487.398 250.127 486.97 249.234 486.532C249.118 486.47 248.993 486.407 248.868 486.345C245.538 484.72 242.243 483.017 238.983 481.237C236.242 474.942 232.384 473.736 229.991 468.2C229.295 466.555 228.791 464.835 228.491 463.074C228.491 463.057 228.482 463.039 228.482 463.012C228.732 466.334 227.42 457.118 228.473 462.976C228.464 462.869 228.455 462.753 228.447 462.619C228.42 462.297 228.384 461.905 228.33 461.413C225.268 431.508 225.464 397.308 224.134 369.127C224.044 367.305 223.952 365.561 223.857 363.894C223.83 363.34 223.794 362.796 223.759 362.26C223.821 362.099 223.892 361.929 223.973 361.769C223.99 361.722 224.011 361.678 224.035 361.635C224.062 361.579 224.091 361.526 224.125 361.474C224.142 361.447 224.169 361.412 224.187 361.385C224.2 361.354 224.215 361.324 224.232 361.295C224.312 361.17 224.401 361.037 224.5 360.911C224.544 360.858 224.58 360.813 224.625 360.769C224.656 360.723 224.691 360.681 224.732 360.644C224.759 360.601 224.792 360.562 224.83 360.528C224.866 360.492 224.901 360.447 224.946 360.403C224.965 360.374 224.989 360.35 225.018 360.331C225.088 360.25 225.166 360.175 225.25 360.108C225.568 359.815 225.909 359.546 226.268 359.304C226.393 359.224 226.527 359.143 226.652 359.054C227.552 358.516 228.499 358.061 229.482 357.697C229.822 357.572 230.161 357.456 230.527 357.331C230.661 357.295 230.786 357.25 230.92 357.206C231.116 357.143 231.313 357.081 231.518 357.036C232.536 356.732 233.635 356.474 234.822 356.232C234.965 356.206 235.117 356.179 235.269 356.143C235.483 356.098 235.706 356.063 235.929 356.027C236.233 355.973 236.546 355.92 236.858 355.866C239.51 355.447 242.519 355.134 245.841 354.929C246.154 354.911 246.466 354.893 246.779 354.875C247.145 354.857 247.511 354.839 247.886 354.822C248.199 354.804 248.52 354.795 248.842 354.786C249.154 354.768 249.476 354.759 249.806 354.75C250.708 354.723 251.637 354.697 252.583 354.679C255.28 354.625 258.119 354.643 261.102 354.706C262.486 354.741 263.897 354.777 265.343 354.839C265.442 354.839 265.531 354.848 265.62 354.848C266.879 354.893 268.147 354.947 269.451 355.018C270.362 355.063 271.282 355.107 272.201 355.161C273.067 355.214 273.943 355.268 274.827 355.331C275.514 355.366 276.202 355.42 276.898 355.464C277.487 355.509 278.077 355.554 278.666 355.59L279.47 355.643C279.907 355.679 280.345 355.706 280.791 355.75C281.774 355.831 282.756 355.911 283.756 355.991C284.747 356.081 285.756 356.17 286.765 356.259C287.774 356.349 288.792 356.447 289.81 356.545C289.917 356.554 290.016 356.563 290.114 356.572C291.043 356.67 291.971 356.759 292.909 356.857C293.123 356.875 293.346 356.893 293.561 356.92C294.455 357.01 295.366 357.115 296.268 357.211C296.545 357.241 296.82 357.27 297.098 357.3C297.805 357.377 298.501 357.444 299.213 357.527C300.151 357.634 301.106 357.733 302.035 357.858C302.758 357.938 303.481 358.018 304.205 358.108C305.339 358.242 306.491 358.384 307.643 358.536C308.08 358.59 308.518 358.643 308.955 358.706C312.241 359.117 315.563 359.572 318.938 360.045C324.055 360.769 329.252 361.554 334.485 362.403C339.726 363.251 344.998 364.147 350.299 365.091C351.638 365.332 352.978 365.573 354.326 365.823C354.933 365.939 355.541 366.055 356.148 366.171C357.184 366.358 358.219 366.555 359.255 366.751C360.291 366.948 361.327 367.144 362.363 367.35C363.595 367.591 364.836 367.832 366.068 368.073C374.185 369.68 382.258 371.395 390.134 373.19C391.428 373.484 392.723 373.788 394.009 374.083C396.581 374.681 399.129 375.288 401.653 375.904C402.349 376.065 403.037 376.235 403.724 376.404C405.439 376.833 407.153 377.261 408.841 377.699L409.136 377.779C410.377 378.083 411.591 378.396 412.806 378.717C415.672 379.467 418.491 380.226 421.262 380.994C423.101 381.503 424.92 382.018 426.718 382.539C429.406 383.316 432.04 384.101 434.603 384.896C435.237 385.093 435.871 385.289 436.496 385.477C438.371 386.057 440.219 386.646 442.014 387.236C443.443 387.7 444.836 388.173 446.211 388.647C447.586 389.12 448.935 389.593 450.256 390.066C451.105 390.37 451.944 390.692 452.783 390.995C453.989 391.442 455.176 391.888 456.337 392.335C456.694 392.468 457.043 392.611 457.391 392.745C457.614 392.844 457.828 392.924 458.043 393.013C458.462 393.183 458.891 393.344 459.302 393.513C459.722 393.674 460.132 393.844 460.543 394.022C460.945 394.183 461.356 394.353 461.749 394.522C462.15 394.683 462.543 394.853 462.936 395.031C463.267 395.165 463.588 395.308 463.901 395.451C464.535 395.728 465.169 396.005 465.785 396.29C466.088 396.433 466.392 396.567 466.696 396.71L467.392 397.031C467.49 397.085 467.588 397.13 467.687 397.174C467.91 397.282 468.142 397.398 468.365 397.505C468.883 397.746 469.392 398.005 469.892 398.246C470.562 398.585 471.214 398.925 471.839 399.255C472.473 399.594 473.089 399.934 473.678 400.264C473.777 400.318 473.866 400.371 473.964 400.425C474.098 400.496 474.232 400.577 474.366 400.648C474.821 400.907 475.259 401.175 475.697 401.434C476.554 401.961 477.366 402.478 478.125 402.996C478.295 403.112 478.456 403.228 478.625 403.336C479.188 403.737 479.724 404.13 480.224 404.532C480.224 404.541 480.224 404.541 480.233 404.541C480.402 404.666 480.563 404.8 480.724 404.925C480.858 405.05 481.001 405.157 481.135 405.282C481.599 405.684 482.028 406.068 482.42 406.461C482.552 406.582 482.677 406.71 482.796 406.845C482.847 406.888 482.895 406.936 482.938 406.988C483.117 407.166 483.278 407.345 483.429 407.524C483.453 407.548 483.474 407.575 483.492 407.604C483.706 407.854 483.903 408.104 484.09 408.354C484.18 408.479 484.278 408.604 484.358 408.729C484.465 408.881 484.572 409.042 484.662 409.193C484.742 409.318 484.814 409.452 484.885 409.577C485.074 409.899 485.236 410.237 485.367 410.586C485.468 410.824 485.548 411.068 485.608 411.319C485.676 411.556 485.727 411.798 485.76 412.042Z" fill="#2F2E41"/>
<path opacity="0.2" d="M485.76 412.042C485.751 413.605 485.733 415.792 485.662 418.498C485.653 418.873 485.635 419.257 485.626 419.65C485.537 423.445 485.403 428.133 485.216 433.428C485.207 433.75 485.198 434.062 485.18 434.384C484.93 440.849 484.537 448.376 483.858 460.297C482.599 482.317 480.402 463.324 478.197 471.048C472.071 467.28 465.356 463.333 458.177 459.279C456.882 458.547 455.575 457.812 454.257 457.074C439.898 449.064 423.861 440.67 407.118 432.357C406.457 432.026 405.787 431.696 405.126 431.374C366.774 412.417 324.912 393.977 290.998 381.673C284.453 379.297 278.202 377.154 272.326 375.27C259.95 371.314 249.252 368.546 241.019 367.35C232.447 366.099 226.527 366.546 224.134 369.126C224.044 367.305 223.952 365.561 223.857 363.894C223.821 363.34 223.785 362.795 223.75 362.26C223.805 362.113 223.876 361.972 223.946 361.831C223.956 361.81 223.963 361.789 223.973 361.769C223.99 361.722 224.011 361.677 224.035 361.635C224.062 361.579 224.091 361.525 224.125 361.474C224.154 361.411 224.19 361.351 224.232 361.295C224.312 361.17 224.401 361.036 224.5 360.911C224.572 360.818 224.649 360.728 224.732 360.643C224.759 360.6 224.792 360.561 224.83 360.527C224.866 360.492 224.901 360.447 224.946 360.402C224.965 360.374 224.989 360.35 225.018 360.331C225.088 360.25 225.166 360.175 225.25 360.108C225.568 359.815 225.909 359.546 226.268 359.304C226.393 359.224 226.527 359.143 226.652 359.054C227.552 358.516 228.499 358.061 229.482 357.697C229.822 357.572 230.161 357.456 230.527 357.331C230.661 357.295 230.786 357.25 230.92 357.206C231.116 357.143 231.313 357.081 231.518 357.036C232.536 356.732 233.635 356.473 234.822 356.232C235.179 356.161 235.554 356.089 235.929 356.027C236.233 355.973 236.546 355.92 236.858 355.866C239.51 355.446 242.519 355.134 245.841 354.928C246.154 354.911 246.466 354.893 246.779 354.875C247.145 354.857 247.511 354.839 247.886 354.821C248.199 354.803 248.52 354.795 248.842 354.786C249.154 354.768 249.476 354.759 249.806 354.75C250.708 354.723 251.637 354.696 252.583 354.678C255.28 354.634 258.119 354.652 261.102 354.714C262.486 354.741 263.897 354.786 265.343 354.848C265.433 354.848 265.531 354.857 265.62 354.857C266.879 354.893 268.156 354.955 269.451 355.018C270.362 355.062 271.282 355.107 272.201 355.161C273.067 355.214 273.943 355.268 274.827 355.33C275.514 355.366 276.202 355.42 276.898 355.464C277.487 355.509 278.077 355.554 278.666 355.589C279.372 355.643 280.077 355.696 280.791 355.75C281.774 355.83 282.756 355.911 283.756 355.991C284.747 356.08 285.756 356.17 286.765 356.259C287.774 356.348 288.792 356.447 289.81 356.545C289.917 356.554 290.016 356.563 290.114 356.572C291.043 356.67 291.971 356.759 292.909 356.857C298.106 357.384 303.455 358 308.955 358.706C312.241 359.125 315.569 359.575 318.938 360.054C324.055 360.777 329.252 361.563 334.485 362.403C339.727 363.251 344.998 364.147 350.299 365.09C351.638 365.331 352.978 365.573 354.326 365.823C355.969 366.126 357.612 366.436 359.255 366.751C360.291 366.948 361.327 367.144 362.363 367.35C363.595 367.591 364.836 367.832 366.069 368.073C374.186 369.68 382.258 371.395 390.134 373.189C391.429 373.484 392.723 373.788 394.009 374.082C396.581 374.681 399.129 375.288 401.653 375.904C402.349 376.074 403.037 376.243 403.724 376.413C405.448 376.842 407.153 377.27 408.841 377.699V377.708C408.939 377.726 409.038 377.752 409.136 377.779C410.368 378.092 411.591 378.404 412.806 378.726C415.672 379.476 418.491 380.232 421.262 380.994C423.102 381.512 424.923 382.021 426.718 382.539C429.406 383.324 432.04 384.11 434.603 384.896C435.237 385.092 435.871 385.289 436.496 385.476C438.371 386.066 440.211 386.652 442.014 387.236C443.443 387.7 444.836 388.173 446.211 388.646C447.586 389.12 448.935 389.593 450.256 390.066C451.114 390.37 451.953 390.682 452.783 390.986C453.998 391.432 455.176 391.879 456.337 392.334C456.694 392.468 457.043 392.611 457.391 392.745C458.043 392.995 458.677 393.254 459.302 393.513C459.722 393.674 460.132 393.843 460.543 394.022C460.945 394.183 461.356 394.352 461.749 394.522C462.15 394.683 462.543 394.853 462.936 395.031C463.267 395.165 463.588 395.308 463.901 395.451C464.535 395.728 465.169 396.004 465.785 396.29C466.088 396.433 466.392 396.567 466.696 396.71L467.392 397.031C467.49 397.085 467.589 397.13 467.687 397.174C468.446 397.531 469.178 397.889 469.892 398.246C470.562 398.585 471.214 398.924 471.839 399.255C472.58 399.648 473.286 400.032 473.964 400.425C474.098 400.496 474.232 400.576 474.366 400.648C474.821 400.907 475.259 401.175 475.697 401.434C476.554 401.96 477.366 402.478 478.125 402.996C478.875 403.514 479.572 404.023 480.224 404.532C480.224 404.541 480.224 404.541 480.233 404.541C480.545 404.791 480.849 405.041 481.135 405.282C481.599 405.684 482.028 406.068 482.421 406.461C482.552 406.582 482.677 406.71 482.796 406.845C482.848 406.888 482.895 406.936 482.938 406.988C483.126 407.193 483.313 407.398 483.492 407.604C483.706 407.854 483.903 408.104 484.09 408.354C484.18 408.479 484.278 408.604 484.358 408.729C484.465 408.881 484.573 409.041 484.662 409.193C484.742 409.318 484.814 409.452 484.885 409.577C485.075 409.899 485.236 410.237 485.367 410.586C485.465 410.824 485.546 411.069 485.608 411.319C485.676 411.556 485.727 411.798 485.76 412.042Z" fill="black"/>
</svg>
