<svg width="694" height="452" viewBox="0 0 694 452" fill="none" xmlns="http://www.w3.org/2000/svg">
<path d="M693.656 426.663C693.656 427.078 693.32 427.414 692.905 427.414H0.925293V425.911H692.905C693.32 425.911 693.656 426.247 693.656 426.663Z" fill="#E6E6E6"/>
<path d="M427.713 322.307C432.162 322.307 435.768 318.701 435.768 314.252C435.768 309.804 432.162 306.198 427.713 306.198C423.265 306.198 419.659 309.804 419.659 314.252C419.659 318.701 423.265 322.307 427.713 322.307Z" fill="#3F3D56"/>
<path d="M488.57 392.114C493.019 392.114 496.625 388.507 496.625 384.059C496.625 379.611 493.019 376.004 488.57 376.004C484.122 376.004 480.516 379.611 480.516 384.059C480.516 388.507 484.122 392.114 488.57 392.114Z" fill="#3F3D56"/>
<path d="M405.787 281.586L475.593 371.977C475.593 371.977 489.913 398.825 512.287 390.771C534.661 382.716 500.652 358.552 500.652 358.552L432.636 268.162C432.636 268.162 423.686 243.871 405.787 248.857C387.888 253.843 405.787 281.586 405.787 281.586Z" fill="#2EB254"/>
<path d="M523.784 345.093L511.99 351.335L482.3 308.816L499.706 299.603L523.784 345.093Z" fill="#A0616A"/>
<path d="M483.237 366.215C483.198 367.028 484.061 369.126 484.441 369.845C485.611 372.056 488.352 372.899 490.563 371.729L527.085 352.395C528.593 351.597 529.169 349.727 528.37 348.219L527.565 346.699C527.565 346.699 526.953 341.172 520.251 337.509C520.251 337.509 517.963 344.366 507.398 341.115L503.407 338.503L494.37 357.094L486.729 362.427C485.057 363.594 483.337 364.179 483.237 366.215Z" fill="#2F2E41"/>
<path d="M465.612 269.022L453.818 275.264L424.128 232.745L441.534 223.532L465.612 269.022Z" fill="#A0616A"/>
<path d="M425.065 290.143C425.026 290.956 425.888 293.055 426.269 293.774C427.439 295.985 430.18 296.828 432.391 295.658L468.913 276.324C470.421 275.526 470.997 273.656 470.198 272.148L469.393 270.627C469.393 270.627 468.781 265.101 462.079 261.437C462.079 261.437 459.791 268.295 449.226 265.044L445.235 262.432L436.198 281.023L428.557 286.356C426.885 287.522 425.165 288.107 425.065 290.143Z" fill="#2F2E41"/>
<path d="M632.57 344.869C631.815 343.595 628.546 344.959 627.945 343.803C627.346 342.651 630.383 340.895 632.118 336.885C632.431 336.162 634.403 331.604 632.943 330.198C630.176 327.533 617.515 338.533 613.084 334.933C612.111 334.143 611.432 332.566 608.489 330.005C607.318 328.987 606.61 328.527 605.925 328.698C604.952 328.941 604.875 330.242 603.833 332.801C602.269 336.637 601.345 336.406 600.434 339.467C599.757 341.74 599.912 343.061 599.116 343.318C597.99 343.682 596.954 341.272 595.526 341.488C594.07 341.708 593.19 344.515 592.912 346.616C592.39 350.559 593.838 353.161 594.641 355.897C595.513 358.87 596.03 363.392 594.016 369.794L574.079 425.966C578.481 414.44 591.225 382.843 596.58 371.101C598.126 367.711 599.833 364.273 603.338 362.916C606.712 361.61 611.347 362.39 617.255 360.967C617.945 360.8 619.86 360.313 620.101 359.187C620.3 358.256 619.174 357.736 619.347 356.864C619.579 355.694 621.794 355.68 624.515 354.331C626.434 353.379 627.63 352.247 628.658 351.274C628.968 350.981 633.576 346.565 632.57 344.869Z" fill="#F2F2F2"/>
<path d="M554.132 374.441C553.288 374.444 553.015 376.442 552.274 376.403C551.536 376.365 551.55 374.368 550.083 372.359C549.818 371.997 548.15 369.714 547.039 370.025C544.932 370.614 546.678 380.002 543.633 381.138C542.964 381.388 541.994 381.266 539.888 381.972C539.051 382.252 538.621 382.467 538.507 382.853C538.346 383.4 538.962 383.813 539.917 385.063C541.349 386.938 540.968 387.325 542.208 388.655C543.128 389.643 543.821 389.948 543.718 390.413C543.572 391.071 542.09 390.884 541.784 391.647C541.472 392.425 542.595 393.667 543.546 394.41C545.331 395.803 547.026 395.843 548.601 396.239C550.312 396.669 552.68 397.719 555.241 400.555L577.058 426.548C572.671 421.062 560.84 405.69 556.622 399.674C555.405 397.937 554.21 396.107 554.555 393.996C554.888 391.962 556.607 389.913 557.614 386.603C557.731 386.216 558.044 385.136 557.561 384.692C557.162 384.326 556.582 384.729 556.204 384.392C555.697 383.941 556.329 382.85 556.451 381.124C556.538 379.908 556.328 378.994 556.147 378.209C556.092 377.972 555.254 374.437 554.132 374.441Z" fill="#F2F2F2"/>
<path d="M570.957 378.218L570.449 373.682L570.681 373.338C571.755 371.748 572.302 370.195 572.309 368.721C572.31 368.487 572.299 368.253 572.288 368.014C572.244 367.068 572.19 365.892 572.803 364.521C573.147 363.756 574.113 361.987 575.565 362.206C575.956 362.26 576.251 362.44 576.476 362.65C576.509 362.598 576.543 362.545 576.579 362.488C577.031 361.798 577.389 361.503 577.734 361.218C577.999 360.999 578.273 360.773 578.702 360.239C578.89 360.005 579.037 359.799 579.161 359.626C579.537 359.102 580.027 358.478 580.892 358.489C581.816 358.533 582.3 359.297 582.621 359.803C583.194 360.705 583.454 361.356 583.625 361.787C583.688 361.945 583.759 362.122 583.795 362.177C584.093 362.615 586.514 362.206 587.426 362.057C589.475 361.715 591.248 361.419 591.979 362.711C592.502 363.636 592.113 364.858 590.788 366.441C590.376 366.934 589.936 367.309 589.547 367.602C589.87 367.795 590.159 368.09 590.276 368.555C590.552 369.654 589.607 370.756 587.468 371.833C586.937 372.103 586.222 372.462 585.22 372.635C584.748 372.716 584.323 372.736 583.96 372.747C583.952 372.957 583.903 373.185 583.774 373.419C583.399 374.109 582.617 374.438 581.439 374.359C580.142 374.291 579.074 374.043 578.133 373.826C577.31 373.638 576.602 373.478 576.045 373.515C575.014 373.599 574.219 374.424 573.286 375.495L570.957 378.218Z" fill="#F2F2F2"/>
<path d="M573.314 351.212L569.055 352.854L568.664 352.716C566.853 352.08 565.212 351.945 563.785 352.312C563.558 352.371 563.334 352.441 563.106 352.512C562.202 352.794 561.078 353.145 559.596 352.9C558.77 352.761 556.813 352.276 556.656 350.816C556.61 350.424 556.709 350.092 556.855 349.822C556.796 349.803 556.737 349.784 556.672 349.763C555.89 349.501 555.514 349.229 555.151 348.968C554.872 348.767 554.584 348.559 553.958 348.28C553.684 348.157 553.447 348.067 553.249 347.992C552.647 347.761 551.919 347.445 551.71 346.605C551.518 345.7 552.134 345.038 552.542 344.599C553.27 343.816 553.833 343.4 554.207 343.125C554.344 343.024 554.497 342.91 554.541 342.862C554.889 342.462 553.879 340.224 553.504 339.38C552.653 337.484 551.918 335.844 552.982 334.81C553.744 334.069 555.024 334.135 556.892 335.016C557.474 335.29 557.947 335.62 558.33 335.922C558.434 335.561 558.647 335.206 559.067 334.975C560.06 334.429 561.365 335.064 562.95 336.859C563.345 337.305 563.874 337.905 564.296 338.831C564.494 339.267 564.621 339.673 564.724 340.022C564.929 339.976 565.162 339.966 565.421 340.03C566.183 340.218 566.7 340.891 566.922 342.051C567.185 343.323 567.217 344.418 567.246 345.384C567.272 346.227 567.297 346.953 567.475 347.482C567.817 348.459 568.817 349.018 570.09 349.649L573.314 351.212Z" fill="#F2F2F2"/>
<path d="M570.957 337.849L570.449 333.313L570.681 332.969C571.755 331.379 572.302 329.827 572.309 328.353C572.31 328.118 572.299 327.884 572.288 327.645C572.244 326.699 572.19 325.523 572.803 324.152C573.147 323.388 574.113 321.618 575.565 321.837C575.956 321.892 576.251 322.071 576.476 322.282C576.509 322.229 576.543 322.176 576.579 322.119C577.031 321.43 577.389 321.134 577.734 320.849C577.999 320.63 578.273 320.405 578.702 319.87C578.89 319.636 579.037 319.43 579.161 319.257C579.537 318.734 580.027 318.109 580.892 318.12C581.816 318.164 582.3 318.928 582.621 319.434C583.194 320.337 583.454 320.987 583.625 321.419C583.688 321.576 583.759 321.754 583.795 321.808C584.093 322.246 586.514 321.837 587.426 321.688C589.475 321.346 591.248 321.051 591.979 322.343C592.502 323.267 592.113 324.489 590.788 326.073C590.376 326.565 589.936 326.94 589.547 327.233C589.87 327.426 590.159 327.722 590.276 328.186C590.552 329.286 589.607 330.387 587.468 331.465C586.937 331.734 586.222 332.093 585.22 332.266C584.748 332.347 584.323 332.367 583.96 332.378C583.952 332.588 583.903 332.816 583.774 333.05C583.399 333.74 582.617 334.069 581.439 333.99C580.142 333.922 579.074 333.675 578.133 333.458C577.31 333.269 576.602 333.11 576.045 333.147C575.014 333.23 574.219 334.056 573.286 335.127L570.957 337.849Z" fill="#F2F2F2"/>
<path d="M575.598 425.893L574.647 425.297L573.539 425.424C573.521 425.321 573.461 425.084 573.37 424.714C572.874 422.686 571.362 416.514 570.1 406.795C569.22 400.01 568.722 393.034 568.619 386.058C568.516 379.072 568.846 373.783 569.111 369.532C569.312 366.325 569.555 363.272 569.794 360.298C570.429 352.352 571.028 344.846 570.582 336.537C570.484 334.682 570.277 330.821 568.021 326.712C566.712 324.329 564.91 322.214 562.663 320.426L564.06 318.67C566.54 320.645 568.534 322.989 569.987 325.635C572.489 330.19 572.714 334.397 572.823 336.419C573.276 344.875 572.67 352.453 572.029 360.475C571.792 363.439 571.549 366.479 571.35 369.672C571.087 373.883 570.759 379.127 570.861 386.023C570.962 392.916 571.455 399.806 572.323 406.506C573.569 416.103 575.06 422.183 575.549 424.18C575.81 425.247 575.865 425.47 575.598 425.893Z" fill="#F2F2F2"/>
<path d="M558.549 323.99C558.457 323.99 558.364 323.988 558.27 323.981C556.36 323.878 554.592 322.735 553.013 320.584C552.273 319.572 551.894 318.418 551.138 316.116C551.021 315.761 550.451 313.961 550.105 311.484C549.879 309.865 549.907 309.189 550.228 308.591C550.584 307.925 551.16 307.461 551.808 307.148C551.78 306.933 551.803 306.712 551.896 306.486C552.278 305.551 553.294 305.674 553.844 305.733C554.122 305.768 554.469 305.814 554.844 305.794C555.433 305.766 555.749 305.59 556.229 305.328C556.688 305.076 557.258 304.762 558.105 304.589C559.774 304.241 561.172 304.714 561.633 304.87C564.059 305.678 565.255 307.564 566.639 309.747C566.915 310.185 567.862 311.78 568.487 313.965C568.938 315.542 568.875 316.243 568.739 316.764C568.463 317.835 567.812 318.449 566.157 319.802C564.429 321.219 563.562 321.929 562.817 322.36C561.083 323.361 559.995 323.99 558.549 323.99Z" fill="#F2F2F2"/>
<path d="M188.058 282.472C186.726 280.225 180.96 282.631 179.899 280.591C178.843 278.559 184.2 275.463 187.261 268.389C187.813 267.113 191.291 259.074 188.716 256.594C183.836 251.892 161.501 271.295 153.685 264.946C151.97 263.552 150.772 260.77 145.58 256.254C143.515 254.457 142.266 253.646 141.057 253.948C139.342 254.376 139.207 256.671 137.368 261.184C134.61 267.952 132.979 267.544 131.372 272.943C130.179 276.952 130.451 279.282 129.048 279.736C127.061 280.379 125.233 276.127 122.716 276.508C120.147 276.896 118.594 281.847 118.104 285.553C117.183 292.509 119.737 297.099 121.153 301.925C122.692 307.17 123.605 315.146 120.052 326.437L84.8842 425.522C92.6481 405.19 115.128 349.455 124.575 328.743C127.302 322.764 130.312 316.7 136.495 314.306C142.447 312.002 150.621 313.378 161.043 310.867C162.26 310.574 165.638 309.715 166.063 307.728C166.414 306.086 164.428 305.169 164.733 303.631C165.142 301.567 169.049 301.542 173.85 299.162C177.235 297.483 179.344 295.487 181.158 293.77C181.705 293.253 189.833 285.464 188.058 282.472Z" fill="#F2F2F2"/>
<path d="M49.6986 334.635C48.211 334.64 47.7284 338.165 46.4215 338.097C45.1193 338.029 45.1452 334.506 42.5565 330.963C42.0897 330.324 39.1478 326.297 37.1873 326.845C33.4715 327.884 36.5504 344.444 31.1788 346.448C29.9999 346.888 28.2888 346.674 24.5742 347.919C23.0965 348.414 22.338 348.793 22.1374 349.473C21.8528 350.438 22.9401 351.167 24.6244 353.372C27.1505 356.678 26.4793 357.361 28.6659 359.708C30.2891 361.45 31.5116 361.988 31.3294 362.808C31.0717 363.969 28.4573 363.639 27.9179 364.984C27.3674 366.357 29.349 368.548 31.0267 369.858C34.1749 372.317 37.1646 372.387 39.9418 373.085C42.9599 373.843 47.1382 375.696 51.6549 380.698L90.1394 426.548C82.4005 416.871 61.5316 389.756 54.0917 379.144C51.944 376.08 49.8362 372.853 50.4453 369.128C51.0317 365.541 54.0656 361.926 55.8403 356.087C56.0476 355.405 56.6003 353.499 55.748 352.717C55.0433 352.071 54.0201 352.782 53.3532 352.188C52.4587 351.392 53.5735 349.467 53.7903 346.424C53.9432 344.278 53.572 342.667 53.2527 341.281C53.1565 340.864 51.6789 334.627 49.6986 334.635Z" fill="#F2F2F2"/>
<path d="M79.3764 341.297L78.4801 333.296L78.8896 332.689C80.7846 329.885 81.7504 327.146 81.762 324.546C81.7639 324.132 81.7446 323.719 81.7252 323.298C81.648 321.629 81.5514 319.554 82.6331 317.136C83.2397 315.788 84.9434 312.666 87.5047 313.053C88.1943 313.149 88.7159 313.466 89.1118 313.837C89.1698 313.744 89.2296 313.651 89.2934 313.551C90.0911 312.334 90.7228 311.812 91.3312 311.31C91.7987 310.924 92.2816 310.526 93.0388 309.583C93.371 309.17 93.6299 308.807 93.8481 308.502C94.5107 307.578 95.3761 306.477 96.902 306.497C98.5323 306.574 99.3861 307.922 99.9521 308.815C100.962 310.406 101.42 311.554 101.723 312.315C101.833 312.593 101.959 312.906 102.023 313.002C102.548 313.775 106.819 313.052 108.428 312.79C112.042 312.187 115.169 311.666 116.458 313.945C117.381 315.575 116.695 317.731 114.358 320.524C113.63 321.393 112.855 322.054 112.168 322.572C112.738 322.912 113.247 323.433 113.454 324.252C113.941 326.191 112.274 328.135 108.501 330.035C107.565 330.511 106.303 331.144 104.536 331.449C103.703 331.592 102.954 331.627 102.313 331.646C102.299 332.017 102.212 332.419 101.986 332.832C101.324 334.049 99.9444 334.629 97.866 334.49C95.5789 334.37 93.6956 333.933 92.0344 333.551C90.5837 333.219 89.334 332.937 88.3527 333.002C86.5331 333.149 85.1307 334.606 83.485 336.495L79.3764 341.297Z" fill="#F2F2F2"/>
<path d="M83.5341 293.66L76.0222 296.556L75.3317 296.314C72.138 295.193 69.2436 294.953 66.7257 295.601C66.3254 295.704 65.9304 295.828 65.528 295.953C63.9333 296.451 61.951 297.071 59.3374 296.638C57.8793 296.394 54.4278 295.537 54.1518 292.962C54.0703 292.27 54.2444 291.685 54.5028 291.208C54.3984 291.176 54.2935 291.141 54.1802 291.105C52.8007 290.642 52.136 290.163 51.4959 289.702C51.0036 289.348 50.4962 288.982 49.3923 288.489C48.9082 288.272 48.4913 288.114 48.1407 287.98C47.0796 287.573 45.795 287.016 45.4267 285.535C45.0879 283.938 46.1755 282.77 46.8952 281.996C48.1786 280.615 49.1723 279.882 49.8315 279.395C50.0726 279.218 50.3435 279.017 50.4208 278.931C51.0349 278.227 49.2528 274.279 48.5906 272.789C47.0909 269.446 45.7932 266.554 47.6712 264.729C49.0139 263.422 51.273 263.539 54.5677 265.091C55.5932 265.575 56.4287 266.157 57.1039 266.691C57.2882 266.053 57.6633 265.428 58.4032 265.02C60.1556 264.057 62.4581 265.177 65.2536 268.344C65.9508 269.13 66.8837 270.189 67.6272 271.821C67.9766 272.59 68.2003 273.306 68.3817 273.922C68.7439 273.841 69.1545 273.823 69.6117 273.937C70.9569 274.269 71.8673 275.456 72.2599 277.502C72.7242 279.744 72.7797 281.677 72.8311 283.381C72.8776 284.868 72.9218 286.149 73.2343 287.081C73.8378 288.804 75.6023 289.791 77.8472 290.904L83.5341 293.66Z" fill="#F2F2F2"/>
<path d="M79.3764 270.089L78.4801 262.088L78.8896 261.482C80.7846 258.677 81.7504 255.938 81.762 253.338C81.7639 252.925 81.7446 252.511 81.7252 252.09C81.648 250.421 81.5514 248.347 82.6331 245.928C83.2397 244.58 84.9434 241.459 87.5047 241.845C88.1943 241.942 88.7159 242.258 89.1118 242.629C89.1698 242.537 89.2296 242.444 89.2934 242.343C90.0911 241.126 90.7228 240.605 91.3312 240.103C91.7987 239.716 92.2816 239.318 93.0388 238.376C93.371 237.962 93.6299 237.599 93.8481 237.294C94.5107 236.371 95.3761 235.27 96.902 235.289C98.5323 235.366 99.3861 236.715 99.9521 237.607C100.962 239.199 101.42 240.346 101.723 241.107C101.833 241.385 101.959 241.698 102.023 241.795C102.548 242.567 106.819 241.845 108.428 241.582C112.042 240.98 115.169 240.458 116.458 242.737C117.381 244.368 116.695 246.523 114.358 249.317C113.63 250.186 112.855 250.846 112.168 251.364C112.738 251.704 113.247 252.226 113.454 253.045C113.941 254.984 112.274 256.927 108.501 258.828C107.565 259.303 106.303 259.937 104.536 260.242C103.703 260.385 102.954 260.42 102.313 260.439C102.299 260.81 102.212 261.212 101.986 261.625C101.324 262.842 99.9444 263.421 97.866 263.282C95.5789 263.162 93.6956 262.726 92.0344 262.343C90.5837 262.011 89.334 261.729 88.3527 261.795C86.5331 261.942 85.1307 263.398 83.485 265.287L79.3764 270.089Z" fill="#F2F2F2"/>
<path d="M87.5627 425.392L85.886 424.341L83.9312 424.565C83.9003 424.384 83.794 423.966 83.6338 423.313C82.7587 419.736 80.0912 408.849 77.8659 391.704C76.3129 379.736 75.434 367.432 75.2524 355.127C75.0708 342.803 75.6542 333.474 76.1216 325.975C76.4751 320.319 76.904 314.934 77.325 309.688C78.4454 295.672 79.502 282.432 78.7158 267.775C78.542 264.503 78.1768 257.692 74.1977 250.445C71.8894 246.241 68.71 242.509 64.7463 239.357L67.211 236.259C71.5862 239.743 75.1036 243.877 77.6669 248.544C82.0788 256.579 82.4767 264.001 82.6679 267.567C83.4676 282.483 82.3994 295.849 81.2675 310.001C80.8502 315.228 80.4214 320.59 80.0699 326.222C79.6063 333.651 79.0287 342.9 79.2084 355.065C79.3861 367.223 80.2553 379.377 81.7871 391.194C83.9853 408.123 86.6143 418.848 87.4777 422.371C87.9374 424.252 88.034 424.646 87.5627 425.392Z" fill="#F2F2F2"/>
<path d="M57.4911 245.643C57.3288 245.643 57.1646 245.639 56.9985 245.627C53.6298 245.446 50.5102 243.429 47.7248 239.635C46.419 237.851 45.7507 235.815 44.4179 231.754C44.2112 231.128 43.2067 227.953 42.5963 223.584C42.1964 220.729 42.2467 219.535 42.8127 218.48C43.4405 217.306 44.4565 216.487 45.6 215.934C45.5498 215.556 45.5903 215.166 45.7545 214.768C46.4287 213.118 48.2212 213.334 49.1909 213.439C49.6815 213.501 50.2938 213.582 50.9545 213.547C51.9937 213.497 52.552 213.188 53.398 212.724C54.2073 212.28 55.2137 211.727 56.7069 211.422C59.6507 210.808 62.1173 211.642 62.9305 211.917C67.2091 213.342 69.3184 216.668 71.76 220.52C72.2468 221.293 73.9176 224.105 75.0206 227.961C75.8164 230.742 75.7044 231.978 75.4648 232.898C74.9781 234.787 73.8288 235.869 70.9101 238.256C67.862 240.756 66.3321 242.007 65.0186 242.768C61.9609 244.534 60.0408 245.643 57.4911 245.643Z" fill="#F2F2F2"/>
<path d="M507.812 178.667L463.959 249.368L509.602 313.805L491.703 322.755C491.703 322.755 433.531 261.003 431.741 252.948C429.951 244.893 449.64 188.511 449.64 188.511H412.26L447.85 233.259L430.846 243.999L369.989 184.932C369.989 184.932 362.829 173.036 369.989 168.692C377.148 164.348 441.349 135.709 441.349 135.709L507.812 178.667Z" fill="#2F2E41"/>
<path d="M407.129 304.408C411.578 304.408 415.184 300.802 415.184 296.353C415.184 291.905 411.578 288.299 407.129 288.299C402.681 288.299 399.075 291.905 399.075 296.353C399.075 300.802 402.681 304.408 407.129 304.408Z" fill="#3F3D56"/>
<path d="M467.539 381.822C471.987 381.822 475.594 378.215 475.594 373.767C475.594 369.319 471.987 365.712 467.539 365.712C463.09 365.712 459.484 369.319 459.484 373.767C459.484 378.215 463.09 381.822 467.539 381.822Z" fill="#3F3D56"/>
<path d="M400.865 72.6147L414.289 47.5559C414.289 47.5559 455.408 55.6105 468.409 72.6147C481.411 89.6188 504.68 134.367 504.68 134.367C504.68 134.367 522.579 170.165 506.469 189.854C490.36 209.543 469.776 170.165 469.776 170.165L440.243 137.051L436.663 136.156L400.865 72.6147Z" fill="#2EB254"/>
<path d="M380.442 177.85C381.586 175.073 383.379 172.61 385.671 170.668L405.057 118.785L420.057 124.563L397.949 175.925C398.124 178.923 397.58 181.919 396.36 184.663C393.401 191.572 387.441 195.646 383.045 193.764C378.649 191.882 377.483 184.757 380.442 177.85Z" fill="#A0616A"/>
<path d="M411.157 73.957L446.507 85.144L417.421 135.709L395.048 133.919L411.157 73.957Z" fill="#2EB254"/>
<path d="M328.556 115.628C331.375 114.591 334.401 114.243 337.382 114.615L388.693 93.7625L394.594 108.714L341.824 127.211C339.737 129.369 337.163 130.997 334.317 131.956C327.229 134.456 320.196 132.827 318.605 128.317C317.015 123.807 321.47 118.126 328.556 115.628Z" fill="#A0616A"/>
<path d="M413.394 62.7703L439.381 91.9088L384.607 114.32L370.778 96.6401L413.394 62.7703Z" fill="#2EB254"/>
<path d="M203.086 253.732C203.115 253.737 203.159 253.745 203.212 253.753C204.245 253.924 210.49 254.888 216.786 252.489C219.453 251.473 218.544 251.22 224.484 247.688C231.449 243.546 233.236 243.575 233.755 241.644C234.79 237.788 229.26 231.726 225.6 232.125C224.637 232.23 223.605 232.805 221.999 232.415C221.647 232.33 220.103 231.955 219.35 230.677C218.679 229.537 219.248 228.715 218.978 227.78C218.269 225.326 212.361 224.101 207.181 224.966C204.202 225.464 201.885 226.823 197.373 229.52C189.518 234.215 185.591 236.562 184.708 240.158C183.872 243.567 185.88 245.035 184.419 248.684C183.06 252.082 180.9 251.855 180.157 254.603C178.961 259.026 183.4 263.88 185.249 265.902C187.276 268.119 189.215 269.336 191.789 270.951C195.019 272.979 196.635 273.992 198.577 273.889C202.098 273.702 212.561 274.339 212.697 271.425C212.748 270.333 225.438 271.227 219.19 259.47C218.423 258.028 203.409 259.569 203.211 258.74" fill="#2F2E41"/>
<path d="M205.943 266.678C216.899 266.678 225.78 257.797 225.78 246.841C225.78 235.885 216.899 227.004 205.943 227.004C194.987 227.004 186.106 235.885 186.106 246.841C186.106 257.797 194.987 266.678 205.943 266.678Z" fill="#FFB6B6"/>
<path d="M136.305 406.448C136.305 406.448 108.469 397.573 107.259 402.01C106.048 406.448 127.026 413.709 143.566 413.709C160.106 413.709 264.188 412.903 264.188 412.903C264.188 412.903 293.234 403.624 284.762 402.01C276.29 400.397 136.305 406.448 136.305 406.448Z" fill="#2EB254"/>
<path d="M149.214 426.619C153.447 426.619 156.879 423.187 156.879 418.954C156.879 414.721 153.447 411.289 149.214 411.289C144.981 411.289 141.549 414.721 141.549 418.954C141.549 423.187 144.981 426.619 149.214 426.619Z" fill="#3F3D56"/>
<path d="M248.858 426.619C253.091 426.619 256.523 423.187 256.523 418.954C256.523 414.721 253.091 411.289 248.858 411.289C244.624 411.289 241.193 414.721 241.193 418.954C241.193 423.187 244.624 426.619 248.858 426.619Z" fill="#3F3D56"/>
<path d="M217.391 271.707L194.13 269.505L185.925 276.548C178.456 279.318 173.442 286.375 173.284 294.339L172.007 358.643L231.713 362.274C231.713 362.274 225.258 347.348 229.695 344.524C234.133 341.7 236.846 302.972 233.124 296.719C229.403 290.466 227.275 283.204 227.275 283.204L217.391 271.707Z" fill="#E6E6E6"/>
<path d="M173.621 356.626L166.359 374.78C166.359 374.78 155.063 400.195 165.956 407.456C176.848 414.718 239.781 409.07 239.781 409.07C239.781 409.07 245.832 403.826 248.656 392.933C251.48 382.041 233.73 364.694 233.73 364.694L231.713 362.274L173.621 356.626Z" fill="#2F2E41"/>
<path d="M251.72 403.837C252.908 410.106 257.106 414.574 261.095 413.817C265.085 413.061 267.354 407.366 266.165 401.095C265.724 398.584 264.688 396.214 263.144 394.185L257.775 367.687L245.394 370.472L252.002 396.299C251.307 398.753 251.211 401.338 251.72 403.837Z" fill="#FFB6B6"/>
<path d="M216.523 312.751C216.523 312.751 220.426 317.304 227.661 318.323C234.896 319.341 246.202 386.291 246.202 386.291L261.725 379.884C261.725 379.884 253.468 319.077 251.167 314.974C248.865 310.871 224.559 280.244 224.559 280.244L216.523 312.751Z" fill="#E6E6E6"/>
<path d="M154.439 405.627C153.251 411.896 149.054 416.364 145.064 415.607C141.075 414.85 138.805 409.156 139.994 402.885C140.435 400.373 141.471 398.004 143.015 395.975L148.385 369.477L160.766 372.262L154.158 398.088C154.852 400.543 154.949 403.128 154.439 405.627Z" fill="#FFB6B6"/>
<path d="M189.636 314.541C189.636 314.541 185.734 319.094 178.499 320.113C171.264 321.131 159.958 388.081 159.958 388.081L144.434 381.674C144.434 381.674 152.691 320.867 154.993 316.764C157.294 312.661 181.601 282.034 181.601 282.034L189.636 314.541Z" fill="#E6E6E6"/>
<path d="M221.43 392.301L209.565 381.956L181.624 421.326L189.664 428.336L221.43 392.301Z" fill="#FFB6B6"/>
<path d="M240.991 403.423C240.991 403.423 262.372 367.922 263.179 352.592C263.986 337.262 250.673 335.245 245.832 338.473C240.991 341.7 188.76 401.063 188.76 401.063L205.089 412.029L240.418 383.895L240.991 403.423Z" fill="#2F2E41"/>
<path d="M180.749 394.314L192.187 383.5L221.694 421.709L213.944 429.038L180.749 394.314Z" fill="#FFB6B6"/>
<path d="M162.325 403.423C162.325 403.423 140.944 367.922 140.137 352.592C139.33 337.262 152.643 335.245 157.484 338.473C162.325 341.7 210.698 403.423 210.698 403.423L198.227 412.029L162.898 383.895L162.325 403.423Z" fill="#2F2E41"/>
<path d="M184.715 414.517C184.715 414.517 169.788 422.182 170.595 424.199C171.402 426.216 172.209 433.881 172.209 433.881C172.209 433.881 160.913 441.546 170.998 446.79C181.084 452.034 188.749 451.631 189.959 448.404C191.169 445.176 191.573 435.898 191.573 435.898L196.817 422.585L184.715 414.517Z" fill="#2F2E41"/>
<path d="M218.198 415.727C218.198 415.727 233.125 423.391 232.318 425.409C231.511 427.426 230.704 435.091 230.704 435.091C230.704 435.091 242 442.755 231.914 448C221.829 453.244 214.164 452.841 212.954 449.614C211.743 446.386 211.34 437.108 211.34 437.108L206.096 423.795L218.198 415.727Z" fill="#2F2E41"/>
<path d="M199.553 248.125C199.583 248.13 199.626 248.137 199.679 248.146C200.712 248.317 206.957 249.28 213.253 246.882C215.921 245.866 215.011 245.612 220.951 242.08C227.916 237.938 229.703 237.967 230.222 236.036C231.258 232.18 225.728 226.118 222.067 226.517C221.104 226.622 220.072 227.197 218.467 226.807C218.114 226.722 216.57 226.347 215.817 225.069C215.146 223.929 215.715 223.107 215.445 222.172C214.736 219.718 208.828 218.493 203.649 219.359C200.669 219.856 198.352 221.215 193.84 223.912C185.985 228.607 182.058 230.954 181.175 234.55C180.339 237.959 182.347 239.428 180.886 243.077C179.527 246.474 177.367 246.247 176.624 248.996C175.428 253.418 179.867 258.273 181.716 260.295C183.743 262.511 185.682 263.728 188.256 265.343C191.486 267.371 193.102 268.385 195.044 268.282C198.565 268.095 202.067 264.904 202.204 261.99C202.255 260.898 201.799 260.57 200.672 256.816C200.202 255.252 199.876 253.961 199.678 253.133" fill="#2F2E41"/>
<path d="M402.655 21.7256C408.654 21.7256 413.517 16.8621 413.517 10.8628C413.517 4.86343 408.654 0 402.655 0C396.655 0 391.792 4.86343 391.792 10.8628C391.792 16.8621 396.655 21.7256 402.655 21.7256Z" fill="#2F2E41"/>
<path d="M385.969 59.5585C399.035 59.5585 409.626 48.9671 409.626 35.9019C409.626 22.8368 399.035 12.2454 385.969 12.2454C372.904 12.2454 362.313 22.8368 362.313 35.9019C362.313 48.9671 372.904 59.5585 385.969 59.5585Z" fill="#A0616A"/>
<path d="M402.936 56.9027C405.77 57.1559 410.397 49.9061 410.19 42.8849C410.058 38.368 413.979 37.4799 414.271 31.6547C414.44 28.2606 409.227 27.2023 408.869 24.4799C408.22 19.5472 405.037 16.228 404.64 15.8245C401.21 12.3414 398.79 13.4737 394.757 9.43688C392.329 7.00652 392.951 6.34068 391.315 5.26268C386.596 2.15151 378.115 5.52342 373.044 10.0655C371.289 11.6373 364.748 9.91944 361.89 14.3579C358.524 19.5872 359.306 30.2518 360.749 31.6592C361.626 32.5143 363.629 30.4252 369.058 29.0845C374.084 27.8431 369.343 33.9818 375.153 32.9517C382.024 31.7335 383.369 29.6431 385.943 30.8969C388.663 32.2223 390.788 36.3262 390.171 39.5523C389.865 41.1532 388.978 42.0458 389.478 42.8599C390.392 44.3461 391.44 42.8885 392.612 44.3801C393.976 46.1149 390.588 50.5656 391.226 50.9954C391.354 51.082 391.743 51.0707 395.4 47.5541C396.86 46.1499 397.288 45.2876 397.574 45.42C398.036 45.6342 401.067 48.4578 399.91 50.6876C398.109 54.1576 400.414 54.2658 399.91 56.6018C399.39 59.0117 401.135 56.7417 402.936 56.9027Z" fill="#2F2E41"/>
</svg>
