<svg width="946" height="491" viewBox="0 0 946 491" fill="none" xmlns="http://www.w3.org/2000/svg">
<path d="M567.87 479.897C561.741 479.893 555.864 477.455 551.531 473.119C547.198 468.784 544.764 462.905 544.764 456.775C544.764 450.646 547.198 444.767 551.531 440.431C555.864 436.095 561.741 433.657 567.87 433.653H911.32C909.592 430.482 907.042 427.835 903.938 425.989C900.834 424.144 897.291 423.169 893.679 423.166H210.994C202.087 423.176 193.548 426.722 187.254 433.024C180.96 439.326 177.425 447.869 177.427 456.775C177.431 465.68 180.968 474.22 187.261 480.521C193.553 486.821 202.089 490.369 210.994 490.384H893.679C897.29 490.382 900.834 489.406 903.938 487.561C907.042 485.716 909.592 483.068 911.32 479.897L567.87 479.897Z" fill="#CCCCCC"/>
<path d="M911.776 446.394H585.235C584.736 446.393 584.257 446.193 583.904 445.84C583.551 445.486 583.352 445.006 583.352 444.506C583.352 444.007 583.551 443.527 583.904 443.173C584.257 442.82 584.736 442.62 585.235 442.619H911.776C912.275 442.62 912.754 442.82 913.107 443.173C913.46 443.527 913.659 444.007 913.659 444.506C913.659 445.006 913.46 445.486 913.107 445.84C912.754 446.193 912.275 446.393 911.776 446.394Z" fill="#CCCCCC"/>
<path d="M911.776 458.663H585.235C584.735 458.663 584.255 458.464 583.901 458.11C583.547 457.756 583.348 457.276 583.348 456.775C583.348 456.275 583.547 455.795 583.901 455.441C584.255 455.087 584.735 454.888 585.235 454.888H911.776C912.276 454.888 912.756 455.087 913.11 455.441C913.464 455.795 913.663 456.275 913.663 456.775C913.663 457.276 913.464 457.756 913.11 458.11C912.756 458.464 912.276 458.663 911.776 458.663Z" fill="#CCCCCC"/>
<path d="M911.776 470.932H585.235C584.736 470.93 584.257 470.731 583.904 470.377C583.551 470.023 583.352 469.544 583.352 469.044C583.352 468.544 583.551 468.065 583.904 467.711C584.257 467.357 584.736 467.158 585.235 467.157H911.776C912.275 467.158 912.754 467.357 913.107 467.711C913.46 468.065 913.659 468.544 913.659 469.044C913.659 469.544 913.46 470.023 913.107 470.377C912.754 470.731 912.275 470.93 911.776 470.932Z" fill="#CCCCCC"/>
<path d="M479.157 414.778C473.027 414.774 467.15 412.336 462.817 408C458.485 403.664 456.051 397.786 456.051 391.656C456.051 385.526 458.485 379.648 462.817 375.312C467.15 370.976 473.027 368.538 479.157 368.534H822.606C820.879 365.363 818.329 362.716 815.225 360.87C812.121 359.025 808.577 358.05 804.966 358.047H122.281C113.374 358.057 104.835 361.603 98.5413 367.905C92.2471 374.206 88.7121 382.749 88.713 391.656C88.7176 400.561 92.2544 409.101 98.5473 415.401C104.84 421.702 113.376 425.249 122.281 425.265H804.966C808.577 425.262 812.121 424.287 815.225 422.442C818.329 420.596 820.879 417.949 822.606 414.778L479.157 414.778Z" fill="#2EB254"/>
<path d="M823.062 381.275H496.522C496.022 381.273 495.543 381.074 495.19 380.72C494.837 380.366 494.639 379.887 494.639 379.387C494.639 378.887 494.837 378.408 495.19 378.054C495.543 377.7 496.022 377.501 496.522 377.5H823.062C823.563 377.5 824.043 377.698 824.397 378.052C824.751 378.406 824.95 378.887 824.95 379.387C824.95 379.888 824.751 380.368 824.397 380.722C824.043 381.076 823.563 381.275 823.062 381.275Z" fill="#CCCCCC"/>
<path d="M823.062 393.543H496.522C496.022 393.543 495.542 393.345 495.188 392.991C494.834 392.637 494.635 392.157 494.635 391.656C494.635 391.155 494.834 390.675 495.188 390.321C495.542 389.967 496.022 389.768 496.522 389.768H823.062C823.563 389.768 824.043 389.967 824.397 390.321C824.751 390.675 824.95 391.155 824.95 391.656C824.95 392.157 824.751 392.637 824.397 392.991C824.043 393.345 823.563 393.543 823.062 393.543Z" fill="#CCCCCC"/>
<path d="M823.062 405.812H496.522C496.022 405.811 495.543 405.612 495.19 405.258C494.837 404.904 494.639 404.425 494.639 403.925C494.639 403.425 494.837 402.945 495.19 402.592C495.543 402.238 496.022 402.038 496.522 402.037H823.062C823.311 402.037 823.557 402.085 823.786 402.18C824.016 402.274 824.224 402.413 824.4 402.588C824.576 402.764 824.715 402.972 824.81 403.201C824.905 403.431 824.954 403.676 824.954 403.925C824.954 404.173 824.905 404.419 824.81 404.648C824.715 404.877 824.576 405.086 824.4 405.261C824.224 405.436 824.016 405.575 823.786 405.67C823.557 405.764 823.311 405.813 823.062 405.812Z" fill="#CCCCCC"/>
<path d="M390.444 347.486C384.314 347.482 378.437 345.044 374.104 340.708C369.772 336.372 367.338 330.494 367.338 324.364C367.338 318.234 369.772 312.355 374.104 308.02C378.437 303.684 384.314 301.246 390.444 301.242H733.893C732.166 298.071 729.616 295.424 726.512 293.578C723.408 291.733 719.864 290.758 716.253 290.755H33.567C24.6603 290.765 16.1219 294.31 9.8278 300.612C3.53373 306.914 -0.00110817 315.457 2.60603e-07 324.364C0.00450645 333.269 3.54114 341.808 9.834 348.109C16.1269 354.41 24.662 357.957 33.567 357.973H716.253C719.864 357.97 723.408 356.995 726.512 355.15C729.616 353.304 732.166 350.657 733.893 347.486L390.444 347.486Z" fill="#CCCCCC"/>
<path d="M734.349 313.983H407.809C407.309 313.981 406.83 313.782 406.477 313.428C406.124 313.074 405.926 312.595 405.926 312.095C405.926 311.595 406.124 311.116 406.477 310.762C406.83 310.408 407.309 310.209 407.809 310.208H734.349C734.85 310.208 735.33 310.406 735.684 310.76C736.038 311.114 736.237 311.594 736.237 312.095C736.237 312.596 736.038 313.076 735.684 313.43C735.33 313.784 734.85 313.983 734.349 313.983Z" fill="#CCCCCC"/>
<path d="M734.349 326.251H407.809C407.561 326.251 407.316 326.203 407.087 326.108C406.858 326.013 406.649 325.874 406.474 325.699C406.299 325.523 406.16 325.315 406.065 325.086C405.97 324.857 405.921 324.612 405.921 324.364C405.921 324.116 405.97 323.87 406.065 323.641C406.16 323.412 406.299 323.204 406.474 323.029C406.649 322.854 406.858 322.715 407.087 322.62C407.316 322.525 407.561 322.476 407.809 322.476H734.349C734.597 322.476 734.842 322.525 735.071 322.62C735.3 322.715 735.509 322.854 735.684 323.029C735.859 323.204 735.998 323.412 736.093 323.641C736.188 323.87 736.237 324.116 736.237 324.364C736.237 324.612 736.188 324.857 736.093 325.086C735.998 325.315 735.859 325.523 735.684 325.699C735.509 325.874 735.3 326.013 735.071 326.108C734.842 326.203 734.597 326.251 734.349 326.251Z" fill="#CCCCCC"/>
<path d="M734.349 338.52H407.809C407.308 338.52 406.828 338.321 406.474 337.967C406.12 337.613 405.921 337.133 405.921 336.633C405.921 336.132 406.12 335.652 406.474 335.298C406.828 334.944 407.308 334.745 407.809 334.745H734.349C734.597 334.745 734.842 334.794 735.071 334.889C735.3 334.984 735.509 335.123 735.684 335.298C735.859 335.473 735.998 335.681 736.093 335.91C736.188 336.139 736.237 336.385 736.237 336.633C736.237 336.881 736.188 337.126 736.093 337.355C735.998 337.584 735.859 337.792 735.684 337.967C735.509 338.143 735.3 338.282 735.071 338.377C734.842 338.471 734.597 338.52 734.349 338.52Z" fill="#CCCCCC"/>
<path d="M898.349 206.502C900.308 212.741 905.08 216.672 908.997 215.267C912.918 213.873 914.503 207.678 912.539 201.427C911.792 198.92 910.459 196.657 908.656 194.812L900.011 168.477L887.904 173.268L897.71 198.711C897.314 201.338 897.534 204 898.348 206.482L898.349 206.502Z" fill="#F3A3A6"/>
<path d="M896.301 195.224L870.847 141.88L835.219 102.709C831.332 98.4303 829.572 92.6314 830.4 86.79C831.228 80.9486 834.514 75.9248 839.423 73.0169C847.437 68.259 857.599 70.5353 863.058 78.3076L898.696 129.058L898.754 129.136L911.045 191.673L896.316 195.232L896.301 195.224Z" fill="#2EB254"/>
<path d="M856.084 70.778L834.356 78.2209V45.6288H854.063L856.084 70.778Z" fill="#F3A3A6"/>
<path d="M836.529 54.3201C848.529 54.3201 858.257 44.1057 858.257 31.5056C858.257 18.9056 848.529 8.69122 836.529 8.69122C824.529 8.69122 814.801 18.9056 814.801 31.5056C814.801 44.1057 824.529 54.3201 836.529 54.3201Z" fill="#F3A3A6"/>
<path d="M842.705 33.0944L839.748 36.8824L834.396 27.011C834.396 27.011 827.561 27.3863 827.561 22.036C827.561 16.6944 821.29 16.546 821.29 16.546C821.29 16.546 812.409 0.215887 830.801 4.51881C830.801 4.51881 843.551 -4.68927 849.896 3.18342C849.896 3.18342 869.34 13.5 863.773 31.4623L854.528 49.9744L852.432 45.785C852.432 45.785 853.699 28.1892 842.705 33.0944Z" fill="#2F2E43"/>
<path d="M862.602 382.413H844.133V408.487H862.602V382.413Z" fill="#F3A3A6"/>
<path d="M827.652 424.783C825.8 424.783 824.151 424.738 822.905 424.612C818.226 424.155 813.757 420.469 811.51 418.317C810.5 417.348 810.181 415.806 810.702 414.479C811.081 413.528 811.83 412.811 812.764 412.533L825.136 408.766L845.165 394.364L845.392 394.794C845.476 394.955 847.446 398.731 848.102 401.278C848.355 402.246 848.287 403.053 847.909 403.681C847.648 404.112 847.277 404.363 846.983 404.506C847.345 404.91 848.481 405.735 851.982 406.327C857.09 407.188 858.168 401.547 858.21 401.314L858.243 401.125L858.395 401.018C860.827 399.35 862.325 398.587 862.838 398.749C863.158 398.848 863.697 399.027 865.153 414.389C865.296 414.873 866.314 418.407 865.624 421.787C864.875 425.464 849.794 424.2 846.773 423.913C846.688 423.922 835.394 424.783 827.66 424.783H827.652Z" fill="#2F2E43"/>
<path d="M801.561 321.266L784.384 317.28L778.981 342.787L796.158 346.772L801.561 321.266Z" fill="#F3A3A6"/>
<path d="M758.344 355.371C756.538 354.951 754.94 354.539 753.753 354.148C749.282 352.659 745.666 348.129 743.913 345.567C743.127 344.413 743.123 342.865 743.899 341.706C744.463 340.876 745.338 340.362 746.303 340.298L759.127 339.465L781.55 330.168L781.682 330.63C781.734 330.799 782.886 334.857 783.019 337.448C783.071 338.432 782.838 339.192 782.347 339.705C782.006 340.062 781.592 340.222 781.272 340.294C781.547 340.761 782.484 341.803 785.779 343.16C790.581 345.136 792.773 339.974 792.859 339.747L792.933 339.575L793.097 339.508C795.806 338.453 797.414 338.064 797.885 338.338C798.182 338.507 798.67 338.789 796.989 353.834C797.038 354.329 797.315 357.942 795.959 361.026C794.488 364.382 780.033 359.787 777.153 358.828C777.07 358.817 765.886 357.105 758.344 355.371Z" fill="#2F2E43"/>
<path d="M815.887 181.429C817.551 181.429 875.639 181.429 875.639 181.429L862.363 390.018H842.448L815.895 181.429H815.887Z" fill="#2F2E43"/>
<path d="M864.108 202.016L865.666 184.688L793.869 225.825L782.486 323.945L800.403 338.92L816.489 277.423L864.108 202.016Z" fill="#2F2E43"/>
<path d="M828.055 58.311L857.557 53.2336L866.723 70.2111C878.367 91.7901 883.116 116.789 880.263 141.471L875.631 181.429H815.887L828.055 58.311Z" fill="#2EB254"/>
<path d="M767.109 190.657C762.135 194.638 760.141 200.65 762.653 204.093C765.164 207.536 771.239 207.103 776.213 203.122C778.224 201.559 779.834 199.502 780.902 197.11L801.764 179.966L793.569 169.479L773.868 187.496C771.381 187.955 769.061 189.041 767.092 190.657H767.109Z" fill="#F3A3A6"/>
<path d="M775.69 183.213L815.505 140.757L839.285 92.8146C841.878 87.5834 846.537 83.9612 852.066 82.8885C857.587 81.8159 863.166 83.4512 867.373 87.3636C874.241 93.7642 875.462 104.561 870.226 112.473L836.023 164.17L835.973 164.249L783.645 196.639L775.699 183.204L775.69 183.213Z" fill="#2EB254"/>
</svg>
