<svg width="531" height="521" viewBox="0 0 531 521" fill="none" xmlns="http://www.w3.org/2000/svg">
<path d="M64.0319 0C58.0917 0.00667144 52.3967 2.36935 48.1964 6.56968C43.996 10.77 41.6334 16.465 41.6267 22.4051V497.414C41.6334 503.354 43.996 509.049 48.1964 513.249C52.3967 517.45 58.0917 519.812 64.0319 519.819H271.98C277.92 519.812 283.615 517.449 287.815 513.249C292.015 509.049 294.378 503.354 294.385 497.414V22.4051C294.378 16.465 292.015 10.77 287.815 6.56968C283.615 2.36935 277.92 0.00667144 271.98 0H64.0319Z" fill="#E6E6E6"/>
<path d="M280.525 109.913V71.7958C268.684 69.0764 257.537 63.9262 247.791 56.6717C238.045 49.4172 229.913 40.2168 223.911 29.6538C221.031 31.7891 217.539 32.9382 213.954 32.9306H183.687C191.763 53.0603 204.938 70.7424 221.916 84.2394C238.895 97.7365 259.092 106.584 280.525 109.913Z" fill="white"/>
<path d="M280.525 69.6113V32.9928C280.526 30.3142 279.999 27.6617 278.974 25.1868C277.949 22.7119 276.447 20.4632 274.553 18.5691C272.659 16.675 270.41 15.1727 267.935 14.148C265.46 13.1233 262.808 12.5963 260.129 12.5972H230.744V16.133C230.747 18.4008 230.289 20.6456 229.398 22.7313C228.508 24.8169 227.203 26.6999 225.562 28.2661C231.368 38.5822 239.25 47.5825 248.71 54.6986C258.171 61.8146 269.003 66.8919 280.525 69.6099V69.6113Z" fill="white"/>
<path d="M139.17 32.9313H120.244C115.79 32.93 111.52 31.1597 108.371 28.0098C105.222 24.8598 103.454 20.5882 103.454 16.1344V12.5986H75.8848C73.2063 12.5984 70.5539 13.1259 68.0792 14.1509C65.6045 15.1759 63.356 16.6784 61.462 18.5725C59.568 20.4666 58.0657 22.7152 57.0409 25.19C56.0161 27.6647 55.4888 30.3172 55.4891 32.9957V486.84C55.4863 489.519 56.012 492.171 57.0361 494.646C58.0603 497.121 59.5627 499.37 61.4574 501.263C63.3521 503.157 65.6017 504.658 68.0774 505.68C70.5532 506.702 73.2063 507.226 75.8848 507.222H260.132C260.972 507.224 261.812 507.172 262.646 507.068C267.579 506.453 272.117 504.058 275.41 500.334C278.703 496.609 280.522 491.811 280.528 486.84V152.741C213.513 144.979 157.676 97.1634 139.17 32.9313Z" fill="white"/>
<path d="M181.391 32.9314H141.383C159.798 95.9732 214.676 142.876 280.526 150.606V112.083C258.52 108.719 237.783 99.6379 220.386 85.7481C202.989 71.8583 189.543 53.6461 181.39 32.9314H181.391Z" fill="white"/>
<path d="M266.49 373.033H77.4462C76.5181 373.031 75.6283 372.662 74.972 372.006C74.3157 371.35 73.9465 370.46 73.9454 369.532V322.638C73.9465 321.71 74.3157 320.821 74.972 320.164C75.6283 319.508 76.5181 319.139 77.4462 319.138H266.49C267.418 319.139 268.308 319.508 268.964 320.164C269.62 320.821 269.989 321.71 269.99 322.638V369.532C269.989 370.46 269.62 371.35 268.964 372.006C268.307 372.662 267.418 373.031 266.49 373.033ZM77.4462 320.537C76.8892 320.537 76.3549 320.759 75.961 321.153C75.567 321.546 75.3458 322.081 75.3458 322.638V369.532C75.3458 370.089 75.567 370.623 75.961 371.017C76.3549 371.411 76.8892 371.632 77.4462 371.632H266.49C267.047 371.632 267.581 371.411 267.975 371.017C268.369 370.623 268.59 370.089 268.59 369.532V322.638C268.59 322.081 268.369 321.547 267.975 321.153C267.581 320.759 267.047 320.538 266.49 320.538L77.4462 320.537Z" fill="#E6E6E6"/>
<path d="M101.951 360.788C110.072 360.788 116.654 354.205 116.654 346.085C116.654 337.964 110.072 331.381 101.951 331.381C93.8306 331.381 87.2477 337.964 87.2477 346.085C87.2477 354.205 93.8306 360.788 101.951 360.788Z" fill="#3F3D56"/>
<path d="M135.909 336.282C135.259 336.282 134.636 336.54 134.176 337C133.716 337.46 133.458 338.083 133.458 338.733C133.458 339.383 133.716 340.006 134.176 340.466C134.636 340.925 135.259 341.183 135.909 341.183H251.435C252.085 341.183 252.709 340.925 253.168 340.466C253.628 340.006 253.886 339.383 253.886 338.733C253.886 338.083 253.628 337.46 253.168 337C252.709 336.54 252.085 336.282 251.435 336.282H135.909Z" fill="#E6E6E6"/>
<path d="M135.909 350.986C135.259 350.986 134.636 351.244 134.176 351.704C133.716 352.163 133.458 352.786 133.458 353.436C133.458 354.086 133.716 354.71 134.176 355.169C134.636 355.629 135.259 355.887 135.909 355.887H251.435C252.085 355.887 252.709 355.629 253.168 355.169C253.628 354.71 253.886 354.086 253.886 353.436C253.886 352.786 253.628 352.163 253.168 351.704C252.709 351.244 252.085 350.986 251.435 350.986H135.909Z" fill="#E6E6E6"/>
<path d="M266.49 451.451H77.4462C76.5181 451.449 75.6283 451.08 74.972 450.424C74.3157 449.768 73.9465 448.878 73.9454 447.95V401.056C73.9465 400.128 74.3157 399.239 74.972 398.582C75.6283 397.926 76.5181 397.557 77.4462 397.556H266.49C267.418 397.557 268.308 397.926 268.964 398.582C269.62 399.239 269.989 400.128 269.99 401.056V447.95C269.989 448.878 269.62 449.768 268.964 450.424C268.307 451.08 267.418 451.449 266.49 451.451ZM77.4462 398.955C76.8892 398.955 76.3549 399.177 75.961 399.571C75.567 399.964 75.3458 400.499 75.3458 401.056V447.95C75.3458 448.507 75.567 449.041 75.961 449.435C76.3549 449.829 76.8892 450.05 77.4462 450.05H266.49C267.047 450.05 267.581 449.829 267.975 449.435C268.369 449.041 268.59 448.507 268.59 447.95V401.056C268.59 400.499 268.369 399.965 267.975 399.571C267.581 399.177 267.047 398.956 266.49 398.956L77.4462 398.955Z" fill="#E6E6E6"/>
<path d="M101.951 439.206C110.072 439.206 116.654 432.623 116.654 424.503C116.654 416.382 110.072 409.799 101.951 409.799C93.8306 409.799 87.2477 416.382 87.2477 424.503C87.2477 432.623 93.8306 439.206 101.951 439.206Z" fill="#3F3D56"/>
<path d="M135.909 414.7C135.259 414.7 134.636 414.958 134.176 415.418C133.716 415.878 133.458 416.501 133.458 417.151C133.458 417.801 133.716 418.424 134.176 418.884C134.636 419.343 135.259 419.601 135.909 419.601H251.435C252.085 419.601 252.709 419.343 253.168 418.884C253.628 418.424 253.886 417.801 253.886 417.151C253.886 416.501 253.628 415.878 253.168 415.418C252.709 414.958 252.085 414.7 251.435 414.7H135.909Z" fill="#E6E6E6"/>
<path d="M135.909 429.404C135.259 429.404 134.636 429.662 134.176 430.122C133.716 430.581 133.458 431.204 133.458 431.854C133.458 432.504 133.716 433.128 134.176 433.587C134.636 434.047 135.259 434.305 135.909 434.305H251.435C252.085 434.305 252.709 434.047 253.168 433.587C253.628 433.128 253.886 432.504 253.886 431.854C253.886 431.204 253.628 430.581 253.168 430.122C252.709 429.662 252.085 429.404 251.435 429.404H135.909Z" fill="#E6E6E6"/>
<path d="M167.989 275.864C159.253 275.867 150.602 274.149 142.53 270.808C134.459 267.466 127.125 262.567 120.947 256.39C114.77 250.213 109.871 242.879 106.529 234.807C103.188 226.735 101.47 218.084 101.474 209.348C101.474 209.208 101.474 209.063 101.482 208.923C101.686 172.497 131.519 142.833 167.989 142.833C176.724 142.833 185.373 144.553 193.443 147.896C201.513 151.239 208.846 156.138 215.022 162.315C221.199 168.491 226.098 175.824 229.441 183.894C232.784 191.964 234.504 200.613 234.504 209.348C234.504 218.083 232.784 226.733 229.441 234.803C226.098 242.873 221.199 250.205 215.022 256.382C208.846 262.558 201.513 267.458 193.443 270.8C185.373 274.143 176.724 275.864 167.989 275.864ZM167.989 144.233C150.798 144.272 134.316 151.092 122.125 163.213C109.934 175.334 103.018 191.777 102.881 208.967C102.873 209.116 102.874 209.236 102.874 209.348C102.872 222.229 106.691 234.821 113.846 245.532C121.001 256.243 131.172 264.591 143.072 269.521C154.972 274.451 168.067 275.742 180.7 273.229C193.334 270.717 204.938 264.514 214.046 255.406C223.155 246.298 229.357 234.693 231.87 222.06C234.382 209.426 233.092 196.331 228.162 184.431C223.232 172.531 214.883 162.36 204.173 155.205C193.462 148.05 180.87 144.232 167.989 144.233Z" fill="#3F3D56"/>
<path d="M198.112 207.813L152.586 181.528C152.373 181.405 152.132 181.341 151.886 181.341C151.64 181.341 151.399 181.405 151.186 181.528C150.973 181.651 150.796 181.828 150.673 182.041C150.55 182.254 150.486 182.495 150.486 182.741V235.309C150.486 235.555 150.55 235.796 150.673 236.009C150.796 236.222 150.973 236.399 151.186 236.522C151.399 236.645 151.64 236.709 151.886 236.709C152.132 236.709 152.373 236.645 152.586 236.522L198.112 210.237C198.325 210.114 198.502 209.937 198.624 209.725C198.747 209.512 198.812 209.27 198.812 209.024C198.812 208.779 198.747 208.537 198.624 208.324C198.502 208.111 198.325 207.935 198.112 207.812L152.586 181.527C152.373 181.404 152.132 181.339 151.886 181.339C151.64 181.339 151.399 181.404 151.186 181.527C150.973 181.65 150.796 181.827 150.673 182.039C150.55 182.252 150.486 182.494 150.486 182.74V235.309C150.486 235.555 150.55 235.796 150.673 236.009C150.796 236.222 150.973 236.399 151.186 236.522C151.399 236.645 151.64 236.709 151.886 236.709C152.132 236.709 152.373 236.645 152.586 236.522L198.112 210.237C198.325 210.114 198.502 209.937 198.624 209.725C198.747 209.512 198.812 209.27 198.812 209.024C198.812 208.779 198.747 208.537 198.624 208.324C198.502 208.111 198.325 207.935 198.112 207.812V207.813Z" fill="#2EB254"/>
<path d="M530.42 520.732H0V519.205H530.697L530.42 520.732Z" fill="white"/>
</svg>
